<svg xmlns="http://www.w3.org/2000/svg" viewBox="0 0 250 70"><defs><style>.cls-1{isolation:isolate;}.cls-2{fill:#f0f0f0;}.cls-3{fill:#e1e1e1;}.cls-4{fill:#00dfbf;}.cls-5{opacity:0.15;}.cls-15,.cls-6,.cls-8{fill:#fff;}.cls-32,.cls-7{opacity:0.3;}.cls-23,.cls-29,.cls-8{opacity:0.4;}.cls-9{fill:#375a64;}.cls-10,.cls-11{fill:#2b454e;}.cls-10,.cls-31{opacity:0.5;}.cls-12{fill:#1a2e35;}.cls-13{fill:#f5f5f5;}.cls-14,.cls-25{fill:#fafafa;}.cls-15,.cls-25{opacity:0.7;}.cls-16{fill:#c76668;}.cls-17{fill:#e7e7e7;}.cls-18{fill:#b0494c;}.cls-19,.cls-28{opacity:0.2;}.cls-20{fill:#ffaaa8;}.cls-21,.cls-27{opacity:0.1;}.cls-22{fill:#ff9090;}.cls-24{fill:#ececec;}.cls-25{mix-blend-mode:hard-light;}.cls-26{opacity:0.25;}.cls-30{opacity:0.6;}.cls-33{opacity:0.45;}.cls-34{opacity:0.35;}</style></defs><g class="cls-1"><g id="Layer_1" data-name="Layer 1"><path id="Floor" class="cls-2" d="M15,64.13C.86,56,.86,42.8,15,34.67s36.93-8.14,51,0S80.06,56,66,64.13,29,72.26,15,64.13Z"/><path id="Shadow" class="cls-3" d="M12,54,8.81,52.17a.21.21,0,0,1,0-.39l24.27-14a.74.74,0,0,1,.68,0l3.16,1.82c.19.1.19.28,0,.39L12.65,54A.74.74,0,0,1,12,54Z"/><ellipse id="Shadow-2" data-name="Shadow" class="cls-3" cx="43.83" cy="44.33" rx="8.28" ry="4.78"/><ellipse id="Shadow-3" data-name="Shadow" class="cls-3" cx="57.93" cy="43.01" rx="7.81" ry="4.51"/><ellipse id="Shadow-4" data-name="Shadow" class="cls-3" cx="68.1" cy="46.31" rx="6.36" ry="3.67"/><path id="Shadow-5" data-name="Shadow" class="cls-3" d="M60.39,56.62c-1.73,1-1.73,2.61,0,3.6a6.84,6.84,0,0,0,6.23,0c1.73-1,1.73-2.61,0-3.6A6.91,6.91,0,0,0,60.39,56.62Z"/><ellipse id="Shadow-6" data-name="Shadow" class="cls-3" cx="56.88" cy="60.7" rx="4.41" ry="2.55"/><path id="Shadow-7" data-name="Shadow" class="cls-3" d="M29.38,36.82c3.6,2.31,9.47,7.26,3.87,12.65-9,.84-17.89-1.35-21-3.32-.15-.09-.15-.21,0-.34a1.52,1.52,0,0,1,.42-.28c2.54-1.17,4.85-3.88,4.69-6,0-.15.17-.24.49-.27h.43c3.52.17,8.13-1,10.19-2.39a1,1,0,0,1,.48-.19h0A.62.62,0,0,1,29.38,36.82Z"/><path id="Shadow-8" data-name="Shadow" class="cls-3" d="M40.64,52.4a4.64,4.64,0,0,0-4.17,0,1.67,1.67,0,0,0-.82.93,1.26,1.26,0,0,0,.05,2.37,4.56,4.56,0,0,0,4.16,0,1.65,1.65,0,0,0,.83-.93A1.26,1.26,0,0,0,40.64,52.4Z"/><path id="Shadow-9" data-name="Shadow" class="cls-3" d="M46.26,62.93l-.85-.49-1.16-.67a1.78,1.78,0,0,0-1.62,0,.49.49,0,0,0,0,.93l1.17.67.84.49a1.76,1.76,0,0,0,1.61,0C46.71,63.6,46.7,63.19,46.26,62.93Z"/><path id="Shadow-10" data-name="Shadow" class="cls-3" d="M45.12,56.91l.85-.48,1.16-.68a1.79,1.79,0,0,1,1.61,0c.45.25.45.67,0,.93l-1.17.67-.84.49a1.82,1.82,0,0,1-1.61,0A.5.5,0,0,1,45.12,56.91Z"/><g id="Plants"><path class="cls-4" d="M12,50.8a11.68,11.68,0,0,0-1.51-8.31c-1-1.66-3-3.31-4.41-3.05s-1.4,1.88,0,3.17,4.22,3.73,4.6,5.69L10.81,50Z"/><path class="cls-5" d="M12,50.8a11.68,11.68,0,0,0-1.51-8.31c-1-1.66-3-3.31-4.41-3.05s-1.4,1.88,0,3.17,4.22,3.73,4.6,5.69L10.81,50Z"/><path class="cls-6" d="M11.33,49a.1.1,0,0,1-.07-.08c-.27-4-3-7.59-4.85-8.53a.1.1,0,0,1,0-.12.07.07,0,0,1,.11,0c1.84,1,4.66,4.6,4.94,8.67a.08.08,0,0,1-.08.09Z"/><path class="cls-4" d="M11.27,52.19a5.38,5.38,0,0,0-1.86-2.65c-1.27-1.18-3-1.88-3.28-2.7-.36-1,.53-1.72,2-1.33,1.24.34,3.64,2,4.05,5.9a3.4,3.4,0,0,1-.86.78Z"/><path class="cls-6" d="M11.65,51.81a.09.09,0,0,1-.07-.06,6.84,6.84,0,0,0-4.25-5.4.07.07,0,0,1,0-.1.08.08,0,0,1,.1-.06c1.28.36,3.65,1.93,4.37,5.52a.08.08,0,0,1-.07.1Z"/></g><g id="Clip_Board" data-name="Clip Board"><g id="Board"><path class="cls-4" d="M12,53.18l-.49-.28a.63.63,0,0,1-.27-.48v-39a.62.62,0,0,1,.28-.48L33.89.06a.61.61,0,0,1,.56,0l.48.28a.6.6,0,0,1,.28.48v39a.61.61,0,0,1-.28.48L12.57,53.18A.59.59,0,0,1,12,53.18Z"/><path class="cls-7" d="M12,53.18l-.49-.28a.63.63,0,0,1-.27-.48v-39a.62.62,0,0,1,.28-.48L33.89.06a.61.61,0,0,1,.56,0l.48.28a.6.6,0,0,1,.28.48v39a.61.61,0,0,1-.28.48L12.57,53.18A.59.59,0,0,1,12,53.18Z"/><path class="cls-8" d="M35.21.77c0-.14-.14-.19-.28-.11L12.57,13.57a.56.56,0,0,0-.19.21l-1-.61a.52.52,0,0,1,.19-.2L33.89.06a.61.61,0,0,1,.56,0l.48.28A.64.64,0,0,1,35.21.77Z"/><path class="cls-5" d="M12.53,53.2h-.12a.73.73,0,0,1-.33,0l-.06,0-.49-.28a.64.64,0,0,1-.28-.48v-39a.61.61,0,0,1,.09-.28l1,.61a.53.53,0,0,0-.08.27V53a.2.2,0,0,0,0,.14.14.14,0,0,0,.15.05Z"/></g><g id="Clip"><path class="cls-9" d="M28.23,5.66l0,0-.47-.27a1.62,1.62,0,0,0-.53-.19L27,5.12,26.77,5l0,0h0l-.52-.3h0a.46.46,0,0,0-.14-.05c-.19,0-.49.07-.78,0a.73.73,0,0,1-.53-.31,6.45,6.45,0,0,1-.45-1l.14-.2,0,0L24,2.84a.6.6,0,0,0-.27-.07,1,1,0,0,0-.5.17c-1.14.66-1.18,2.23-1.59,3.26A6,6,0,0,1,20.32,8c-.32.44-.34.77-1,1.74s-.73,1.21-.73,1.4v1.44l.52.3,9.37-5.41Zm-8.6,5.57c-.12.07-.22,0-.22-.21a.59.59,0,0,1,.22-.47c.13-.07.23,0,.23.22A.56.56,0,0,1,19.63,11.23Zm4.12-4.05A.47.47,0,0,1,23,7c-.36.07-.63-.28-.63-.89a2.18,2.18,0,0,1,.83-1.76.47.47,0,0,1,.72.22c.37-.08.64.27.64.88A2.22,2.22,0,0,1,23.75,7.18Zm3.11-.12c-.12.07-.22,0-.22-.21a.59.59,0,0,1,.22-.47c.13-.07.22,0,.22.21A.56.56,0,0,1,26.86,7.06Z"/><path class="cls-10" d="M19.59,11.49l-1-.58a.72.72,0,0,0,0,.23v1.44l.52.3.52-.3Z"/><path class="cls-10" d="M20.63,9.69l.52-1.2L20.32,8h0c-.24.34-.31.61-.64,1.14Z"/><path class="cls-10" d="M22.71,7.28l.07-.35c-.23-.09-.38-.4-.38-.86A2.41,2.41,0,0,1,23,4.46L22.31,4c-.31.7-.42,1.53-.67,2.16-.06.13-.11.25-.17.37Z"/><path class="cls-11" d="M28.23,5.66l0,0a2,2,0,0,0-.48-.16A1.47,1.47,0,0,1,27,5.12.88.88,0,0,0,26.8,5a.3.3,0,0,0-.14-.06c-.31-.08-.89.27-1.3-.27h0c-.29-.39-.4-1.26-.83-1.51l0,0a.77.77,0,0,0-.73.12c-1.14.66-1.18,2.23-1.59,3.26a6,6,0,0,1-1.32,1.8c-.32.44-.34.77-1,1.74s-.73,1.21-.73,1.4v1.44l9.37-5.41V6A.37.37,0,0,0,28.23,5.66Zm-8.08,5.87c-.12.08-.22,0-.22-.21a.59.59,0,0,1,.22-.47c.13-.07.22,0,.22.22A.56.56,0,0,1,20.15,11.53Zm3.6-4.35A.47.47,0,0,1,23,7a1.41,1.41,0,0,1-.11-.59,2.18,2.18,0,0,1,.83-1.76.64.64,0,0,1,.2-.08c.37-.08.64.27.64.88A2.22,2.22,0,0,1,23.75,7.18Zm3.63.18c-.12.07-.22,0-.22-.21a.59.59,0,0,1,.22-.47c.13-.07.22,0,.22.21A.56.56,0,0,1,27.38,7.36Z"/><path class="cls-12" d="M24.59,5.41a2.22,2.22,0,0,1-.84,1.77A.47.47,0,0,1,23,7a.84.84,0,0,0,.2-.08,2.22,2.22,0,0,0,.84-1.77A1.19,1.19,0,0,0,24,4.53C24.32,4.45,24.59,4.8,24.59,5.41Z"/><path class="cls-12" d="M20.15,11.53c-.12.07-.22,0-.22-.21a.59.59,0,0,1,.22-.47c.13-.07.23,0,.23.22a.56.56,0,0,1-.23.46"/><path class="cls-12" d="M27.38,7.36c-.12.07-.22,0-.22-.21a.59.59,0,0,1,.22-.47c.13-.07.22,0,.22.21a.56.56,0,0,1-.22.47"/></g><g id="Papet"><path class="cls-13" d="M14,15.91,33.48,4.67a.4.4,0,0,1,.34,0l.18.11a.39.39,0,0,1,.17.29V38.71A.37.37,0,0,1,34,39L14.55,50.23a.34.34,0,0,1-.34,0l-.19-.1a.39.39,0,0,1-.16-.29V16.2A.36.36,0,0,1,14,15.91Z"/><path class="cls-14" d="M34.16,5c0-.07-.08-.09-.16,0L14.55,16.21a.28.28,0,0,0-.12.12l-.52-.3a.28.28,0,0,1,.12-.12L33.48,4.67a.38.38,0,0,1,.33,0l.19.11A.36.36,0,0,1,34.16,5Z"/><path class="cls-3" d="M14.51,50.25l-.07,0h-.13l-.06,0,0,0-.18-.1a.37.37,0,0,1-.17-.29V16.2a.34.34,0,0,1,.05-.17l.52.3a.34.34,0,0,0,0,.17V50.14C14.38,50.23,14.43,50.27,14.51,50.25Z"/></g><g id="Clip-2" data-name="Clip"><path class="cls-9" d="M29.79,8.88l-.52-.3a.56.56,0,0,0-.52,0l-1.18.52-.23.09c-.12.05-.36,0-.29-.42l.81-2.16h0l-.5-.29a.16.16,0,0,0-.09,0h-.06c-.33,0-.42-2.13-.42-2.19h0l-.51-.29A.54.54,0,0,0,26,3.71a1,1,0,0,0-.47.13,4.3,4.3,0,0,0-1.79,2.75,5.19,5.19,0,0,1-1.23,2.17,1.33,1.33,0,0,0-.43.73l-.32,1.78-.1.58a1.83,1.83,0,0,1-.51.83l-1.63,1.23A4.17,4.17,0,0,0,18,16.67h0s0,.06,0,.07h0l.21-.12,11.23-6.47a.26.26,0,0,0,.1-.16h0c.07-.38.25-1.11.25-1.11ZM26.54,5.6a2.61,2.61,0,0,1-1.1,1.69c-.33.18-.58.07-.66-.24a.42.42,0,0,1-.37,0A8.83,8.83,0,0,1,25.8,4.48a.38.38,0,0,1,.22.29C26.42,4.65,26.65,5,26.54,5.6Z"/><path class="cls-10" d="M19.59,15.1l-.82-.47a4.44,4.44,0,0,0-.81,2h0s0,.06,0,.07h0l.65-.51Z"/><path class="cls-10" d="M21.56,12l1.15.67.52-3-1-.6a.91.91,0,0,0-.16.4l-.32,1.78-.1.58A1.21,1.21,0,0,1,21.56,12Z"/><path class="cls-10" d="M24.24,5.16a4.65,4.65,0,0,0-.55,1.43,3.35,3.35,0,0,1-.41,1l1,.58.5-1.14a.39.39,0,0,1-.36,0A4,4,0,0,1,25,5.62Z"/><path class="cls-11" d="M29.79,8.88h0a.56.56,0,0,0-.52,0c-.74.33-1,.44-1.41.61-.12.05-.35,0-.29-.39v0l.1-.57L28,7s.07-.25-.09-.34h0a.23.23,0,0,0-.13,0,.63.63,0,0,1-.46-.29,1.15,1.15,0,0,1-.17-.89c.11-.67,0-1.14-.31-1.31l0,0a.82.82,0,0,0-.75.07A4.29,4.29,0,0,0,24.21,6.9,5.21,5.21,0,0,1,23,9.06a1.33,1.33,0,0,0-.43.73l-.32,1.78-.1.58a1.89,1.89,0,0,1-.51.84L20,14.21a3.89,3.89,0,0,0-1.34,2l-.65.51h0l.21-.12,11.26-6.47.16-.09s.48-.44.48-.44A.89.89,0,0,0,29.79,8.88ZM26.54,5.6a2.61,2.61,0,0,1-1.1,1.69c-.33.18-.58.07-.66-.24a1.34,1.34,0,0,1,0-.53,2.58,2.58,0,0,1,1.1-1.69A.42.42,0,0,1,26,4.77C26.42,4.65,26.65,5,26.54,5.6Z"/><path class="cls-12" d="M26.54,5.6a2.61,2.61,0,0,1-1.1,1.69c-.33.18-.58.07-.66-.24L24.92,7A2.61,2.61,0,0,0,26,5.3a1.34,1.34,0,0,0,0-.53C26.42,4.65,26.65,5,26.54,5.6Z"/><path class="cls-12" d="M26.07,4.8h0a.3.3,0,0,1,.24.11c.2.29,0,1-.08,1.25s-.87,1.09-1.08,1.09A.52.52,0,0,1,24.81,7a1.39,1.39,0,0,1,0-.5,2.58,2.58,0,0,1,1.08-1.67L26,4.8h.05m0,0H26a.42.42,0,0,0-.14.06,2.58,2.58,0,0,0-1.1,1.69,1.34,1.34,0,0,0,0,.53.55.55,0,0,0,.37.23h0c.23,0,1-.77,1.11-1.11s.38-1.4-.19-1.4Z"/><path class="cls-12" d="M18,16.76l11.47-6.6.16-.09s.48-.44.48-.44L18.65,16.24S18,16.78,18,16.76Z"/></g><polygon class="cls-14" points="16.36 42.77 19.42 40.98 19.42 44.53 16.36 46.32 16.36 42.77"/><path class="cls-9" d="M16.49,42.84V46.1l2.8-1.64V41.2Zm-.13,3.61-.06,0a.11.11,0,0,1-.06-.11V42.77a.11.11,0,0,1,.06-.11l3.05-1.79a.15.15,0,0,1,.13,0,.13.13,0,0,1,.06.11v3.55a.11.11,0,0,1-.06.11l-3.05,1.79Z"/><path class="cls-3" d="M21,40.22v.25c0,.14.1.2.22.13L32,34.34a.49.49,0,0,0,.22-.38v-.25c0-.14-.1-.2-.22-.13L21.17,39.84A.49.49,0,0,0,21,40.22Z"/><path class="cls-3" d="M21,41.77V42c0,.14.1.19.22.12L32,35.89a.49.49,0,0,0,.22-.37v-.26c0-.14-.1-.2-.22-.13L21.17,41.39A.49.49,0,0,0,21,41.77Z"/><path class="cls-3" d="M21,43.31v.26c0,.14.1.19.22.12L32,37.44a.49.49,0,0,0,.22-.38V36.8c0-.14-.1-.2-.22-.13L21.17,42.93A.49.49,0,0,0,21,43.31Z"/><polygon class="cls-4" points="17.94 44.59 17.23 43.9 17.54 43.25 17.94 43.64 19.62 40.08 19.93 40.38 17.94 44.59"/><polygon class="cls-14" points="16.36 36.62 19.42 34.83 19.42 38.38 16.36 40.17 16.36 36.62"/><path class="cls-9" d="M16.49,36.69V40l2.8-1.64V35.05Zm-.13,3.61-.06,0a.11.11,0,0,1-.06-.11V36.62a.14.14,0,0,1,.06-.11l3.05-1.79a.15.15,0,0,1,.13,0,.14.14,0,0,1,.06.11v3.56a.11.11,0,0,1-.06.1l-3.05,1.79Z"/><path class="cls-3" d="M21,34.07v.26c0,.14.1.19.22.12L32,28.2a.49.49,0,0,0,.22-.38v-.26c0-.14-.1-.2-.22-.13L21.17,33.69A.49.49,0,0,0,21,34.07Z"/><path class="cls-3" d="M21,35.62v.26c0,.14.1.19.22.13L32,29.75a.49.49,0,0,0,.22-.38v-.26c0-.14-.1-.19-.22-.13L21.17,35.24A.49.49,0,0,0,21,35.62Z"/><path class="cls-3" d="M21,37.16v.26c0,.14.1.2.22.13L32,31.29a.49.49,0,0,0,.22-.38v-.26c0-.14-.1-.19-.22-.12L21.17,36.79A.49.49,0,0,0,21,37.16Z"/><polygon class="cls-4" points="17.94 38.44 17.23 37.75 17.54 37.11 17.94 37.5 19.62 33.94 19.93 34.23 17.94 38.44"/><polygon class="cls-14" points="16.36 30.48 19.42 28.69 19.42 32.24 16.36 34.03 16.36 30.48"/><path class="cls-9" d="M16.49,30.55v3.26l2.8-1.64V28.91Zm-.13,3.6H16.3a.14.14,0,0,1-.06-.11V30.48a.11.11,0,0,1,.06-.11l3.05-1.79a.12.12,0,0,1,.13,0,.11.11,0,0,1,.06.11v3.55a.14.14,0,0,1-.06.11l-3.05,1.79Z"/><path class="cls-3" d="M21,27.92v.26c0,.14.1.2.22.13L32,22.05a.49.49,0,0,0,.22-.38v-.26c0-.14-.1-.19-.22-.12L21.17,27.55A.47.47,0,0,0,21,27.92Z"/><path class="cls-3" d="M21,29.48v.25c0,.14.1.2.22.13L32,23.6a.49.49,0,0,0,.22-.38V23c0-.14-.1-.19-.22-.12L21.17,29.1A.49.49,0,0,0,21,29.48Z"/><path class="cls-3" d="M21,31v.25c0,.14.1.2.22.13L32,25.14a.49.49,0,0,0,.22-.38v-.25c0-.14-.1-.2-.22-.13L21.17,30.64A.49.49,0,0,0,21,31Z"/><polygon class="cls-4" points="17.94 32.29 17.23 31.61 17.54 30.96 17.94 31.35 19.62 27.79 19.93 28.08 17.94 32.29"/><path class="cls-4" d="M16.24,20.77v6.45c0,.39.27.55.6.35l5.59-3.23a1.34,1.34,0,0,0,.61-1V16.84a.37.37,0,0,0-.61-.35l-5.59,3.23A1.34,1.34,0,0,0,16.24,20.77Z"/><path class="cls-15" d="M16.24,20.77v6.45c0,.39.27.55.6.35l5.59-3.23a1.34,1.34,0,0,0,.61-1V16.84a.37.37,0,0,0-.61-.35l-5.59,3.23A1.34,1.34,0,0,0,16.24,20.77Z"/><path class="cls-14" d="M19.64,19.06c.64-.37,1.16-.07,1.16.68a2.59,2.59,0,0,1-1.16,2c-.65.37-1.17.07-1.17-.68A2.58,2.58,0,0,1,19.64,19.06Z"/><path class="cls-14" d="M21.66,21.91c-.1-.54-.66-.55-1.23-.22l-1.59.91a2.63,2.63,0,0,0-1.23,1.65l-.3,2.07L22,23.64Z"/><path class="cls-9" d="M23.73,18.81v-2.2a.37.37,0,0,1,.18-.31l8.14-4.7c.1-.06.18,0,.18.1v2.2a.4.4,0,0,1-.18.31l-8.14,4.7C23.81,19,23.73,18.92,23.73,18.81Z"/><path class="cls-4" d="M24.6,17.86a0,0,0,0,1,0,0V16.62l0,0,.15-.08s0,0,0,0,0,0,0,0v1.17a.08.08,0,0,1,0,0,0,0,0,0,1,0,0Z"/><path class="cls-4" d="M25.48,17.35h0a0,0,0,0,1,0,0l-.27-.47v.62s0,0,0,0l0,0-.15.09h0s0,0,0,0V16.44a.06.06,0,0,1,0,0l0,0,.12-.07s0,0,0,0,0,0,0,0l.27.46v-.61s0,0,0,0l0,0,.16-.09h0v1.2s0,0,0,0l0,0Z"/><path class="cls-4" d="M26.11,15.7a.27.27,0,0,1,.14,0,.14.14,0,0,1,.11,0,.23.23,0,0,1,.07.07.45.45,0,0,1,0,.11v0s0,0,0,0l-.15.09h-.12l-.05,0,0,0,0,0,0,0s0,0,0,0a.05.05,0,0,0,0,0h.1l.11,0h.11a.1.1,0,0,1,.08,0,.14.14,0,0,1,.05.08.52.52,0,0,1,0,.14.57.57,0,0,1,0,.18.87.87,0,0,1-.07.17,1.2,1.2,0,0,1-.26.26l-.15,0-.11,0a.2.2,0,0,1-.08-.08.27.27,0,0,1,0-.12s0,0,0,0,0,0,0,0l.15-.09H26l0,0h0l.06,0,.1-.09a.13.13,0,0,0,0-.1s0,0,0,0H26.2l-.08,0-.11,0a.18.18,0,0,1-.18,0,.3.3,0,0,1,0-.21.44.44,0,0,1,0-.16.51.51,0,0,1,.07-.17.65.65,0,0,1,.1-.15Z"/><path class="cls-4" d="M27.27,15.05a0,0,0,0,1,0,0v.75a.9.9,0,0,1,0,.24,1.18,1.18,0,0,1-.07.2.74.74,0,0,1-.12.17.81.81,0,0,1-.14.12l-.15,0a.15.15,0,0,1-.11,0,.23.23,0,0,1-.08-.12,1,1,0,0,1,0-.2v-.73a.08.08,0,0,1,0,0,0,0,0,0,1,0,0l.15-.09h0a0,0,0,0,1,0,0v.71a.24.24,0,0,0,0,.15s.06,0,.11,0a.27.27,0,0,0,.1-.13.38.38,0,0,0,0-.19v-.71s0,0,0,0,0,0,0,0Z"/><path class="cls-4" d="M27.81,14.74l.14-.06a.2.2,0,0,1,.11,0,.2.2,0,0,1,.06.09.42.42,0,0,1,0,.17,1,1,0,0,1,0,.25.59.59,0,0,1-.11.19l.15.35v.05s0,0,0,0l-.16.1h0v0l-.13-.32-.11.07V16a0,0,0,0,1,0,0s0,0,0,0l-.16.09h0a0,0,0,0,1,0,0V15a.06.06,0,0,1,0,0l0,0Zm-.13.62.13-.07a.2.2,0,0,0,.08-.08.16.16,0,0,0,0-.12c0-.05,0-.08,0-.09s0,0-.08,0l-.13.08Z"/><path class="cls-4" d="M28.71,14.22h0v0l.26,1v.06s0,0,0,0l-.15.09h0s0,0,0,0l0-.13-.31.18,0,.17a.08.08,0,0,1,0,0l0,0-.15.09h0v0l.26-1.29a.11.11,0,0,1,0-.05.08.08,0,0,1,0,0Zm-.19.9.19-.11-.1-.38Z"/><path class="cls-4" d="M29.66,14.94h0v0l-.27-.47v.62s0,0,0,0l0,0-.16.09h0s0,0,0,0V14a.08.08,0,0,1,0,0l0,0,.12-.07h0v0l.27.46v-.65l0,0,.16-.09h0a0,0,0,0,1,0,0V14.8s0,0,0,0,0,0,0,0Z"/><path class="cls-4" d="M30.16,13.86v.31s0,.05,0,.07a.08.08,0,0,0,0,0s0,0,.05,0a.08.08,0,0,0,.06,0,.18.18,0,0,0,.07,0l0-.06,0-.06s0,0,0-.06,0,0,0,0l0,0,.15-.09h0s0,0,0,0a.58.58,0,0,1,0,.19.64.64,0,0,1-.08.19.91.91,0,0,1-.11.16l-.15.12a.3.3,0,0,1-.15.05.15.15,0,0,1-.11,0,.24.24,0,0,1-.07-.12.43.43,0,0,1,0-.17c0-.05,0-.1,0-.16S30,14,30,14a1.49,1.49,0,0,1,0-.21,1.67,1.67,0,0,1,.08-.2,1,1,0,0,1,.11-.17l.15-.12a.3.3,0,0,1,.15,0,.2.2,0,0,1,.11,0,.18.18,0,0,1,.08.09.41.41,0,0,1,0,.16,0,0,0,0,1,0,0,0,0,0,0,1,0,0l-.15.09h0s0,0,0,0v0l0,0h0l-.07,0a.15.15,0,0,0-.06,0l-.05.07a.29.29,0,0,0,0,.09S30.17,13.83,30.16,13.86Z"/><path class="cls-4" d="M31.39,13.65h0a0,0,0,0,1,0,0v.19s0,0,0,0,0,0,0,0l-.56.32h0s0,0,0,0V13.06a.06.06,0,0,1,0,0l0,0,.55-.31h0s0,0,0,0v.19a.06.06,0,0,1,0,0l0,0-.36.21v.19l.34-.19h0a0,0,0,0,1,0,0v.19a.06.06,0,0,1,0,0l0,0-.34.19v.21Z"/><path class="cls-4" d="M23.91,19.7l6.94-4c.1-.06.18,0,.18.11V16a.41.41,0,0,1-.18.32l-6.94,4c-.1.06-.18,0-.18-.11V20A.41.41,0,0,1,23.91,19.7Z"/><path class="cls-4" d="M23.91,21l6.2-3.58c.1-.06.18,0,.18.11v.23a.41.41,0,0,1-.18.32l-6.2,3.58c-.1,0-.18,0-.18-.11v-.23A.41.41,0,0,1,23.91,21Z"/><path class="cls-4" d="M23.91,22.32l4.92-2.84c.1-.06.18,0,.18.11v.23a.41.41,0,0,1-.18.32L23.91,23c-.1.05-.18,0-.18-.11v-.24A.4.4,0,0,1,23.91,22.32Z"/></g><g id="Character"><g id="Bottom"><path class="cls-12" d="M39.44,42.14a1.42,1.42,0,0,0-.15.72,3.46,3.46,0,0,1,.09,1c-.06.5-.18.65-.23,1a1.25,1.25,0,0,0,.19.93c.21.34.66.6,1.55.57.73,0,1-.4,1-.82Z"/><path class="cls-12" d="M39.65,41.11a1.31,1.31,0,0,0,0,.28c0,.17-.08.33-.12.49l0,.13a4.87,4.87,0,0,0,0,1,6,6,0,0,1-.21,1.18c-.16.7-.19,1.17.42,1.66a1.71,1.71,0,0,0,1.09.27,1.65,1.65,0,0,0,.9-.22.51.51,0,0,0,.27-.41c0-.75-.25-1.62-.3-2.36a3,3,0,0,1,0-.6c0-.25.11-.49.14-.74a.44.44,0,0,0,0-.28.49.49,0,0,0-.33-.15q-.49-.06-1-.09a.29.29,0,0,0-.22,0,.38.38,0,0,0-.08.24c0,.08-.08.18-.17.16a.15.15,0,0,1-.1-.12c0-.06,0-.49,0-.54S39.69,41,39.65,41.11Z"/><path class="cls-12" d="M50.5,43.58a.58.58,0,0,1,0,.41,2.06,2.06,0,0,1-1.51.48,3.61,3.61,0,0,1-1.77-.54,1.93,1.93,0,0,0-1.08-.23,1.59,1.59,0,0,1-1.05-.35,1,1,0,0,1,0-.57Z"/><path class="cls-12" d="M47.44,41.08a1.63,1.63,0,0,1,.09.19,1.45,1.45,0,0,0,.46.58,4.7,4.7,0,0,0,.94.5,6.55,6.55,0,0,0,.63.19,4.28,4.28,0,0,1,.69.31.61.61,0,0,1,0,1,3,3,0,0,1-2.07.23c-.49-.12-1.06-.62-1.7-.65A2.46,2.46,0,0,1,45.05,43a1.62,1.62,0,0,1,.1-1,3.5,3.5,0,0,0,.08-.65c0-.12-.08-.45.16-.49l0,.25s0,.08.3.13c.08,0,.14.12.19.22s.07.17.15.17a.17.17,0,0,0,.13-.1.94.94,0,0,0,0-.16.64.64,0,0,1,.39-.38,2.16,2.16,0,0,1,.44-.1c.12,0,.21-.06.32,0Z"/><path class="cls-11" d="M41,22c-.31,3.05-.43,4.5-.83,10.59a17,17,0,0,0-.61,3.5c-.09,1.47-.3,5.92-.3,5.92a3,3,0,0,0,2.57.53S43.1,36,43.53,34s.84-4.43.84-4.43l.2,3.06s-.06,1.21,0,3c0,1,.49,6.22.49,6.22a2.87,2.87,0,0,0,2.8-.21s.08-8.52.1-9.4-.16-11.09-.16-11.09Z"/><path class="cls-12" d="M44.37,29.52l.75-4.15a3.73,3.73,0,0,0,2.05-.85s-.13.72-1.79,1.15l-.67,3.47-.14,3.44Z"/><path class="cls-12" d="M39.32,41.2a2.71,2.71,0,0,0,1.83.66,3.45,3.45,0,0,1-1.82-.92Z"/><path class="cls-12" d="M45,41.21a3.94,3.94,0,0,0,2.15.1A2.6,2.6,0,0,1,45,41.4Z"/></g><g id="Top"><path class="cls-16" d="M56.25,14.15c0-.06,0-.13,0-.18s0-.07,0-.12,0-.22,0-.31-.06,0-.08-.08a.75.75,0,0,1-.06-.13.22.22,0,0,0-.23-.07.91.91,0,0,0-.32.2,5.67,5.67,0,0,1-1,.86l-.17.08s-.15,0-.16,0a.65.65,0,0,1,0-.18c0-.1,0-.2,0-.3a.69.69,0,0,0-.12-.54c-.23-.21-.17.28-.52.74s-.41,1.16-.69,1.48h0L51,17.31s-1.47-2.09-2.27-3.26a2.56,2.56,0,0,0-2.34-1.34c-.41,1.36,1,4,1,4s2,2.18,2.6,2.74a1,1,0,0,0,1.55.08c.33-.31,1.66-1.91,2-2.37a3.68,3.68,0,0,1,.94-.9,7.4,7.4,0,0,0,.84-.53,3.59,3.59,0,0,0,.58-.52,2,2,0,0,0,.25-.32,2.18,2.18,0,0,0,.11-.27.76.76,0,0,0,.06-.26.29.29,0,0,0-.1-.23Z"/><path class="cls-9" d="M51.89,16.45l.72-.59a3.25,3.25,0,0,0,1,1.32l-.63.89Z"/><path class="cls-17" d="M46.16,12.64a3.83,3.83,0,0,1,1.82.45A8,8,0,0,1,49.56,15c.76,1.13,1.48,2.14,1.48,2.14L52.28,16a3.83,3.83,0,0,0,.91,1.88s-1.31,1.56-1.68,1.87-.87.52-1.61-.14-2.78-3-2.78-3Z"/><path class="cls-9" d="M43,12.55c-.26.06-1.4.39-2.08.63a1.9,1.9,0,0,0-.86.66c-.5.72.25,2.22.62,5.25,0,1.95-.09,4.38-.09,4.38.9.65,5.24,1,7.13-.37,0,0-.09-7.24-.22-8.19-.24-1.83-1-2.31-2.42-2.4Z"/><path class="cls-11" d="M47.33,6.77a.75.75,0,0,0,0-.2.85.85,0,0,0-.25-.67.57.57,0,0,0-.68-.06A.81.81,0,0,0,45.74,5a1.64,1.64,0,0,0-.77.26,9.63,9.63,0,0,1-1.17.43,3.07,3.07,0,0,0-1.09.57,1.37,1.37,0,0,0-.49,1.1,1,1,0,0,0-.51.86,3.53,3.53,0,0,0,.42,1.52s.52,1.23.64,1.47.24.51.24.51l0-.88a4,4,0,0,0,1-.19,5.5,5.5,0,0,0,1-.45A10.29,10.29,0,0,0,46.66,9a1.8,1.8,0,0,0,.66-.84,1,1,0,0,0-.19-.89A1.68,1.68,0,0,0,47.33,6.77Z"/><path class="cls-16" d="M43.71,7.41a1.69,1.69,0,0,1-.59,1.23,3,3,0,0,1,0,1.07.42.42,0,0,1-.08.22.28.28,0,0,1-.19.12c-.1,0-.14-.06-.17-.14s-.11-.2-.16-.3a.53.53,0,0,0-.09-.11.5.5,0,0,0-.84.17,1.09,1.09,0,0,0,.56,1.3.51.51,0,0,0,.68-.26L43,13c.35.37,1.79.87,2.17,1.31.17-.3.66-1,0-1.44v-.74a5.52,5.52,0,0,0,1-.05,1,1,0,0,0,.72-.88,8.68,8.68,0,0,0,0-3,1.68,1.68,0,0,0-.63-1.09c0,.13-.1.45-.75.54A3.63,3.63,0,0,1,43.71,7.41Z"/><path class="cls-18" d="M45.15,12.14a3.64,3.64,0,0,1-1.36-.31,1.34,1.34,0,0,1-.53-.49,1.63,1.63,0,0,0,.31.58c.28.34,1.58.52,1.58.52Z"/><path class="cls-12" d="M44.87,9.52a.24.24,0,0,1-.22.25.23.23,0,0,1-.23-.23.24.24,0,0,1,.22-.25A.23.23,0,0,1,44.87,9.52Z"/><path class="cls-12" d="M44.7,8.68,44.17,9a.31.31,0,0,1,.13-.41A.29.29,0,0,1,44.7,8.68Z"/><path class="cls-12" d="M46.83,8.92l-.56-.22a.32.32,0,0,1,.4-.17A.3.3,0,0,1,46.83,8.92Z"/><path class="cls-18" d="M44.76,10.73l.72.24a.37.37,0,0,1-.48.25A.38.38,0,0,1,44.76,10.73Z"/><path class="cls-12" d="M46.68,9.41a.23.23,0,1,1-.24-.23A.23.23,0,0,1,46.68,9.41Z"/><path class="cls-18" d="M45.6,10.56l.76-.15a2.23,2.23,0,0,0-.89-1.34Z"/><path class="cls-4" d="M45.54,14.69a22.51,22.51,0,0,1,.8,4.79,6.89,6.89,0,0,1-.46,1.68c-.34.81-.57.09-.76-.39a6,6,0,0,1-.32-1.37c-.06-.6.18-2.44.09-4.6A.47.47,0,0,1,45.54,14.69Z"/><path class="cls-19" d="M45.54,14.69a22.51,22.51,0,0,1,.8,4.79,6.89,6.89,0,0,1-.46,1.68c-.34.81-.57.09-.76-.39a6,6,0,0,1-.32-1.37c-.06-.6.18-2.44.09-4.6A.47.47,0,0,1,45.54,14.69Z"/><path class="cls-4" d="M45.57,13.66c.31.27,0,1,0,1a.89.89,0,0,0-.65.11s-.62-.26-.62-.72.44-.28.76-.34S45.53,13.44,45.57,13.66Z"/><path class="cls-19" d="M45.57,13.66c.31.27,0,1,0,1a.89.89,0,0,0-.65.11s-.62-.26-.62-.72.44-.28.76-.34S45.53,13.44,45.57,13.66Z"/><path class="cls-19" d="M45.54,14.69c0-.18-.3-.16-.49-.22a.5.5,0,0,1-.26-.23c-.1-.17,0-.46.14-.49h0c-.3,0-.66,0-.66.33s.62.72.62.72A.89.89,0,0,1,45.54,14.69Z"/><path class="cls-11" d="M45.08,13.73c-.61-.13-2-.7-2.15-1.4V12c-.24,0-.35.26-.46.63-.05,1,1,1.88,2,2.12a1.7,1.7,0,0,1,.23-.64A.78.78,0,0,1,45.08,13.73Z"/><path class="cls-13" d="M42.94,12.45s.44,2.22.64,3.73a79.49,79.49,0,0,1,.05,8.46c-.08,2-.37,5.6-.37,5.6a5.15,5.15,0,0,1-1.66-.1,11.68,11.68,0,0,1-2.16-.45s.52-5.37.66-7.3a18.39,18.39,0,0,0,0-3l-.66-3.94s-.49-2,1.08-2.48A20.3,20.3,0,0,1,42.94,12.45Z"/><path class="cls-4" d="M42.18,16.1c0-.09,0-.29,0-.55-.08-1.24,0-3,.45-3.13l0,.17c-.31.06-.36,2.35-.32,2.95,0,.26,0,.47,0,.57Z"/><path class="cls-17" d="M42.91,11.72c-.13,0-.24,0-.34.21s-.37.69-.37.69a5.37,5.37,0,0,0,0,1.34c.1.26.76,1.47.76,1.47S43,16.62,43,17s.68,1.82.75,2.51c0,0,0-2.78-.07-3.56a16.12,16.12,0,0,0-.69-3.57Z"/><path class="cls-9" d="M41.93,20.23h0V20.1a.67.67,0,0,0,.4-.15,1.38,1.38,0,0,1-.33-.3,6.15,6.15,0,0,1-.5-2.51c.11-.35.46-1.14.77-1.15h0c.31,0,.72.74.86,1.08a6,6,0,0,1-.28,2.54,1.39,1.39,0,0,1-.31.34.82.82,0,0,0,.42.11v.12a1,1,0,0,1-.53-.15A1.06,1.06,0,0,1,41.93,20.23Zm.34-4.12h0c-.18,0-.51.59-.66,1.07a6,6,0,0,0,.47,2.4,1.77,1.77,0,0,0,.35.3,1.41,1.41,0,0,0,.32-.33A6.05,6.05,0,0,0,43,17.12C42.83,16.66,42.46,16.11,42.27,16.11Z"/><path class="cls-12" d="M43.15,20.11a.19.19,0,0,1-.18.19.17.17,0,0,1-.18-.17.18.18,0,0,1,.17-.19A.19.19,0,0,1,43.15,20.11Z"/><path class="cls-12" d="M42.1,20.16a.19.19,0,0,1-.18.19.19.19,0,0,1-.18-.18.17.17,0,0,1,.17-.18A.18.18,0,0,1,42.1,20.16Z"/><path class="cls-4" d="M43.17,17.88h-.11a0,0,0,0,1,0,0,1.9,1.9,0,0,0,0-.7c-.18-.44-.55-1-.72-1s-.49.59-.63,1.05a1.85,1.85,0,0,0,0,.7s0,0,0,0l-.1,0s-.05,0-.05,0a2.31,2.31,0,0,1,0-.78c.08-.24.44-1.16.8-1.18s.81.87.9,1.11a2,2,0,0,1,.05.78A0,0,0,0,1,43.17,17.88Z"/><path class="cls-13" d="M45.15,12.16l.55.35c.69.21,1.14.29,1.42.67.47.62.82,1.32.93,4.48s.34,11.9.34,11.9a2.48,2.48,0,0,1-1.59.26s0-9.92,0-12.15a7.55,7.55,0,0,0-.88-4.05,2.46,2.46,0,0,0-.73-1.25Z"/><path class="cls-17" d="M45.9,13.68c.48.73.78,1.73.84,4,0,.27,0,.82,0,1.27,0,0,.07-.35.13-.69a8.31,8.31,0,0,0,.25-1.91A6.59,6.59,0,0,0,46.63,15a4,4,0,0,0-.39-2.08,1.15,1.15,0,0,0-.25-.32,3.21,3.21,0,0,0-.3-.21,1.1,1.1,0,0,0-.54-.22v.21A2.68,2.68,0,0,1,45.9,13.68Z"/><path class="cls-11" d="M45.15,12.37a1.52,1.52,0,0,1,.52.39,1.73,1.73,0,0,1,.2,1.73,1.48,1.48,0,0,0-.31-.52.84.84,0,0,0-.48-.24.84.84,0,0,0,.08-.85Z"/><path class="cls-16" d="M40.49,13.19a2,2,0,0,0-1.76,1.37c-.26.75-.59,2.55-1,3.73a22.43,22.43,0,0,1-2.61-1.39,5.24,5.24,0,0,1-.82-1,3.88,3.88,0,0,1-.39-.59,3.3,3.3,0,0,1-.28-.72c-.09-.25-.46,0-.46.43a2.5,2.5,0,0,0,.09.67c-.16,0-.57,0-.64,0-.26,0-1,0-.95.4,0,.09.08.18.07.27s0,.08,0,.13a.46.46,0,0,0,.11.46.37.37,0,0,1,.11.19.63.63,0,0,0,.08.23c0,.05.1.08.14.13a.59.59,0,0,1,.15.2,1.07,1.07,0,0,0,.13.21c.14.15.36.11.54.11a7.09,7.09,0,0,1,.81,0c.47.11,2.21,1.64,3.69,2.45.51.28.92.42,1.25.25h0c.27-.11.41-.41.58-.84.4-1,1.41-3.65,1.41-3.65A4.3,4.3,0,0,0,40.49,13.19Z"/><path class="cls-9" d="M36,17.34l-.83-.44a2.08,2.08,0,0,1-.73,1.45l.82.69A1.88,1.88,0,0,0,36,17.34Z"/><path class="cls-17" d="M40.52,13A4.55,4.55,0,0,1,41,15.91c-.32.93-1.55,4.08-1.74,4.5s-.52.71-1.45.36a20.64,20.64,0,0,1-3-1.88,4,4,0,0,0,.8-1.81l2,.91s.56-2.43.82-3.29A2.25,2.25,0,0,1,40.52,13Z"/><path class="cls-18" d="M33.16,15.91c.24,0,.34.12.44.44s.23.51.48.58a.49.49,0,0,1-.3,0c-.13-.07-.16-.07-.19,0a.37.37,0,0,1-.12.13.26.26,0,0,1,.12.28c0,.19-.47.34-.89.27,0,0,.64,0,.71-.24S33.1,17,32.85,17c0,0,.6-.05.63-.26s-.26-.27-.61-.25c0,0,.49-.07.51-.25S33.24,16,33.16,15.91Z"/></g></g><g id="Characters"><path class="cls-11" d="M62.57,40c.26,0,.17,1,.24,1.65s.22,1.23.28,1.8a2.31,2.31,0,0,1-.21,1.46c-.19.42-1.1,1-1.45.39a3.36,3.36,0,0,1-.38-1.93,12.44,12.44,0,0,0,0-1.64c0-.5-.22-1.54.12-1.61v.18c.13.24,1.29.41,1.42-.06Z"/><path class="cls-12" d="M57.3,41a6,6,0,0,1,0,1.22,1.16,1.16,0,0,1-.64.51l-.23-1.24Z"/><polygon points="56.66 42.72 55.55 42.36 55.28 41.37 56.53 42.01 56.66 42.72"/><path class="cls-11" d="M55.5,39.85v-.23c-.15.07-.49,1.28-.94,2.12s-1.22,1.18-1.48,1.51.33,1,1.43.78a3,3,0,0,0,1.6-.83c.22-.37.3-1.05.48-1.32s.62-.58.71-.89a1.61,1.61,0,0,0,0-.85c-.08-.28-.16-.62-.26-.59v.21c-.08.15-.34.33-.9.36A.62.62,0,0,1,55.5,39.85Z"/><path class="cls-9" d="M55.32,20.92A85.08,85.08,0,0,0,54.77,31c0,3.68,0,9.81,0,9.81a3.2,3.2,0,0,0,1.37.38A3.63,3.63,0,0,0,57.57,41s.7-5.11.81-6.38a12.32,12.32,0,0,0-.16-2.87l.42-3.07s.4,3,.5,3.53,1.53,9.54,1.53,9.54a2.45,2.45,0,0,0,1.18.21,2.06,2.06,0,0,0,1.23-.45s0-6.91-.17-8-.4-2-.45-2.75-.21-4.91-.27-6.47a12.1,12.1,0,0,0-.71-4.28S55.49,19.77,55.32,20.92Z"/><path class="cls-11" d="M58.64,28.63l-.6-4.2a4.69,4.69,0,0,1-1.71-1.08,2.53,2.53,0,0,0,1.36,1.37l.75,4-.11,2.18Z"/><path class="cls-20" d="M56,20c.82-4.48,1.21-5.72,1.33-6.71a2.27,2.27,0,0,0-2.54,2c-.18.69-.51,3-.77,4.09-.58,1.23-.76,2.66-1.4,3.5a.67.67,0,0,1-.42.27,3.21,3.21,0,0,0-.82.56c-.25.16-.43.17-.42.25a.33.33,0,0,0,.39.24,1.72,1.72,0,0,0,.46-.12,3.53,3.53,0,0,1-.68.68c-.61.47-.58,1,.38,1.18.6.14,1.16-.23,2.06-1.35a9.39,9.39,0,0,0,1-1.5A16.92,16.92,0,0,0,56,20Z"/><g id="Chest"><path class="cls-4" d="M58.79,13.2l2.18.19a3.52,3.52,0,0,1,.41.23c.44.35.47,1,.54,1.53a15.65,15.65,0,0,1-.63,3.77,12.69,12.69,0,0,1,.78,3.23c-1.87,1.09-5.22,1.48-7,0,.09-1,.45-2.58.45-2.61,0-.76-.07-1.42-.07-1.42a2.07,2.07,0,0,1-.28-2.62,5.35,5.35,0,0,1,2.1-2.21Z"/><path class="cls-21" d="M57.22,18.26a1.65,1.65,0,0,0,1.59.28,1.91,1.91,0,0,0,1.32-1.22,1.47,1.47,0,0,1-1.28,1.49A1.34,1.34,0,0,1,57.22,18.26Z"/></g><g id="Arms"><g id="Arm"><path class="cls-22" d="M67.3,24.44a2,2,0,0,0-1.51.6c-.53.51-1.09,1-1.84,1.78l-1.52-2.59-1.21.95A22.78,22.78,0,0,0,62.54,28c.24.39.66,1.3,1.38,1.05a16.47,16.47,0,0,0,2.62-1.84Z"/><path class="cls-16" d="M62.43,24.23l.48.82a1.32,1.32,0,0,1-1.56.44l-.13-.31Z"/><path class="cls-9" d="M67.63,24.34a2.29,2.29,0,0,0-1.9.68c-.7.64-1.6,1.54-1.6,1.54a4,4,0,0,0,1.05,1.74l2.21-1.66Z"/></g><path class="cls-20" d="M64.79,18.39c-1.74-3.75-2.13-4.49-2.84-4.8a3.36,3.36,0,0,0-1-.2c-.25.46-.8,2.11.23,3.11,0,0,1.17,1.76,1.7,2.69a12.9,12.9,0,0,1-.58,3.07.73.73,0,0,1-.38.35c-.36.19-.39.37-.7.58s-.42.18-.4.25a.39.39,0,0,0,.43.23,1.74,1.74,0,0,0,.46-.13,3.07,3.07,0,0,1-.62.68c-.57.47-.64.82.38,1,.64.13,1.19-.14,1.83-1.34a9.45,9.45,0,0,0,.62-1.38,29,29,0,0,0,1-3A1.46,1.46,0,0,0,64.79,18.39Z"/><path class="cls-22" d="M62.1,23.13c.55.14.72.73.27,1a2.37,2.37,0,0,1-1.38.15l-.2.22c-.1-.09,0-.54.23-.83A1.05,1.05,0,0,1,62.1,23.13Z"/></g><path class="cls-9" d="M59.94,12.23a6.58,6.58,0,0,0,1.3-1.29,2.29,2.29,0,0,0-.28-3c0-.67-.75-1.85-2.58-1.76a4.82,4.82,0,0,0-.85.11,5.44,5.44,0,0,0-.78.25,2.76,2.76,0,0,1-1,.14.74.74,0,0,0-.49.09.51.51,0,0,0-.15.43,1.06,1.06,0,0,0,.55.83.48.48,0,0,0-.17.32,1,1,0,0,0,.07.56,1.26,1.26,0,0,0,.55.47,3.7,3.7,0,0,0,1.5.35l.66,0a1.2,1.2,0,0,1,.27,0Z"/><path class="cls-20" d="M60.87,9.75a.7.7,0,0,0-1.12.13c-.45.17-.89-.4-.76-1.79-1,.5-2.58.42-2.67-.26a5.32,5.32,0,0,0-.46,2.56c0,1.57.53,1.86.79,2a2.49,2.49,0,0,0,1.23.07l0,1s-1,.83-.09,1a2.79,2.79,0,0,0,2.13-.93L60,11.19a.7.7,0,0,0,.78-.14A1,1,0,0,0,60.87,9.75Z"/><circle class="cls-4" cx="60.31" cy="10.83" r="0.19"/><circle class="cls-23" cx="60.31" cy="10.83" r="0.19"/><path class="cls-12" d="M56.81,9l-.51.22a.26.26,0,0,1,.13-.36A.3.3,0,0,1,56.81,9Z"/><path class="cls-12" d="M58.68,9.29l-.51-.24a.27.27,0,0,1,.36-.14A.29.29,0,0,1,58.68,9.29Z"/><path class="cls-12" d="M58,9.81a.22.22,0,0,0,.2.26.23.23,0,0,0,.25-.21.22.22,0,0,0-.2-.26A.23.23,0,0,0,58,9.81Z"/><path class="cls-12" d="M56.35,9.69a.22.22,0,0,0,.19.25.22.22,0,0,0,.24-.2.22.22,0,1,0-.43-.05Z"/><polygon class="cls-22" points="57.44 9.58 57.41 10.88 56.64 10.71 57.44 9.58"/><path class="cls-22" d="M58.16,11.09l-.64.17a.32.32,0,0,0,.39.25A.35.35,0,0,0,58.16,11.09Z"/><path class="cls-22" d="M57.88,12.43c.46,0,1.4-.32,1.55-.7a1,1,0,0,1-.33.48,5,5,0,0,1-1.22.51Z"/><g id="Character-2" data-name="Character"><path class="cls-22" d="M72,45.61a1.53,1.53,0,0,1-1.35,0l-.3-2.6,1.79-.71Z"/><path class="cls-12" d="M69,48a.61.61,0,0,0,0,.4,1.29,1.29,0,0,0,.88.41,2.24,2.24,0,0,0,1.29-.18.89.89,0,0,0,.5-.68,1.89,1.89,0,0,1,.17-.81c.14-.2.35-.43.4-.54a1.13,1.13,0,0,0,0-.6Z"/><path class="cls-9" d="M70.51,45.49a2.14,2.14,0,0,1-.08.32,2.62,2.62,0,0,1-.34.64,3,3,0,0,1-.23.3c-.16.18-.36.32-.53.49a1.09,1.09,0,0,0-.34.63c0,.4.4.56.73.63a2.45,2.45,0,0,0,1.11,0,1,1,0,0,0,.77-.78c0-.11,0-.23,0-.34a1.58,1.58,0,0,1,.34-.7,1.92,1.92,0,0,0,.25-.38,1.16,1.16,0,0,0,0-.78c0-.22,0-.41-.15-.41v.12s-.07,0-.1.11l-.08.15a.41.41,0,0,1-.18.19V45.2a.18.18,0,0,0,0-.13.2.2,0,0,0-.13-.06,2.81,2.81,0,0,0-.87-.11s-.09,0-.11.05a.13.13,0,0,0,0,.1C70.52,45.2,70.52,45.34,70.51,45.49Z"/><path class="cls-13" d="M70,46.53a1.13,1.13,0,0,1,.68-.07,1.11,1.11,0,0,1,.52.2.12.12,0,0,0,.16,0h0a.12.12,0,0,0,0-.18,1.22,1.22,0,0,0-.58-.24,1.24,1.24,0,0,0-.59,0S70,46.4,70,46.53Z"/><path class="cls-13" d="M69.67,46.94a1.38,1.38,0,0,1,.75,0,1.1,1.1,0,0,1,.51.21.11.11,0,0,0,.15,0h0a.11.11,0,0,0,0-.17,1.2,1.2,0,0,0-.6-.26c-.46,0-.58,0-.58,0A.39.39,0,0,0,69.67,46.94Z"/><path class="cls-13" d="M71,45.81a1.17,1.17,0,0,0-.57,0c-.08,0-.14.17-.09.2a1.06,1.06,0,0,1,.51,0,1.54,1.54,0,0,1,.49.15l.12.07c.06,0,.13,0,.15,0h0a.1.1,0,0,0,0-.13A1.54,1.54,0,0,0,71,45.81Z"/><path class="cls-22" d="M67.89,44a.92.92,0,0,1-1.42,0l-.12-2.55,1.74,0Z"/><path class="cls-12" d="M63.57,45.53a.45.45,0,0,0,0,.36,1.8,1.8,0,0,0,1.34.4,3.07,3.07,0,0,0,1.55-.5,1.71,1.71,0,0,1,1-.23,1.18,1.18,0,0,0,.87-.36.87.87,0,0,0,0-.47Z"/><path class="cls-9" d="M66.61,43.31l-.19-.08s-.07,0-.11,0a.17.17,0,0,0-.08.13,1.68,1.68,0,0,1-.09.32.7.7,0,0,1-.21.21,3.87,3.87,0,0,1-.61.38l-.74.33a6.11,6.11,0,0,0-.8.3.54.54,0,0,0,0,.89,2.64,2.64,0,0,0,1.83.16c.44-.11.93-.56,1.5-.59A2,2,0,0,0,68.3,45c.09-.12,0-.51-.11-.84s-.12-.94-.24-.91-.12.19-.18.29a2.59,2.59,0,0,0-.14.29c0,.09,0,.19-.12.24a.23.23,0,0,1-.29,0c-.1-.11,0-.3-.11-.44a.49.49,0,0,0-.25-.17Z"/><path class="cls-13" d="M65.66,44.06a.36.36,0,0,1,.27-.18,1,1,0,0,1,.63.26.14.14,0,0,1,0,.22h0a.16.16,0,0,1-.16,0A1,1,0,0,0,65.66,44.06Z"/><path class="cls-13" d="M65.15,44.33s.1-.17.32-.16a1.24,1.24,0,0,1,.68.28.13.13,0,0,1,0,.21h0a.12.12,0,0,1-.15,0A1,1,0,0,0,65.15,44.33Z"/><path class="cls-13" d="M64.58,44.58a.42.42,0,0,1,.33-.14,1.15,1.15,0,0,1,.66.27.14.14,0,0,1,0,.22h0a.16.16,0,0,1-.15,0A1,1,0,0,0,64.58,44.58Z"/><path class="cls-9" d="M71.76,30.85s.11,1.51.15,2.4.13,4.06.23,4.42c.43,1.48.14,3.77.09,6.63a2.59,2.59,0,0,1-1.84,0s-.9-5.52-1.08-6.48-.48-2.73-.48-2.73-.27,2.33-.29,2.71a15,15,0,0,1-.43,4.72,1.61,1.61,0,0,1-1,.12c-.75-.09-.87-.36-.87-.36s-.14-4.84-.19-5.8-.13-4.43,0-5.67Z"/><path class="cls-11" d="M68.83,35.13l-.16-1a3.17,3.17,0,0,1-1.82-.74s.19.84,1.51,1l.17.91v2.52Z"/><path class="cls-4" d="M71.14,24.6c.09.39.66,1.89.66,1.87l-.11,3.16L71.91,32c-.79.93-4.17,1.31-6,.07,0,0,0-4.62.07-5.53.17-1.58.72-2.12,1.68-2.22l2.18.1Z"/><path class="cls-22" d="M73.93,29.31c-1.14-4-1.84-4.37-2.64-4.6a3,3,0,0,0-.26,2c.21.57,1,2.25,1.31,3.18a12.48,12.48,0,0,1,.06,2.79,1.11,1.11,0,0,1-.27.52c-.23.26-.22.5-.39.77s-.18.32-.14.37.17.09.36,0a1.06,1.06,0,0,0,.38-.38,5.72,5.72,0,0,1-.27.92c-.24.61.05,1,.77.62.51-.3.84-.58,1-1.79.07-.48.15-1.1.17-1.55A7.44,7.44,0,0,0,73.93,29.31Z"/><path class="cls-9" d="M71.14,24.6a1.73,1.73,0,0,1,1.33.67,19.13,19.13,0,0,1,1.22,2.93,2.36,2.36,0,0,1-.82.56,2.46,2.46,0,0,1-1,.19l-.79-1.83A2.48,2.48,0,0,1,71.14,24.6Z"/><path class="cls-12" d="M66.08,20.48a.82.82,0,1,0,.82-.82A.82.82,0,0,0,66.08,20.48Z"/><path class="cls-12" d="M70.76,21.75s-.27,1.24-.37,1.44a.58.58,0,0,1-.33.27l.08-1Z"/><path class="cls-12" d="M70.41,19.87a.53.53,0,0,1,.53.21,2.27,2.27,0,0,1-.18,1.67l-.5.06Z"/><path class="cls-22" d="M66.32,21.71a3.27,3.27,0,0,0,0,.62A1.52,1.52,0,0,0,68,23.94h.11l0,.6c-.93,1,1.46,1.08,2,.06l.08-2.15a.47.47,0,0,0,.55.12.76.76,0,0,0,.41-1,.44.44,0,0,0-.52-.22c-.22.06-.35.36-.61.32s.17-.54.09-.7-.43-1.5-3-1.22c-.32.21-.36.23-.53,1A6.17,6.17,0,0,0,66.32,21.71Z"/><path class="cls-12" d="M68.63,18.67a.36.36,0,0,0-.14-.26.64.64,0,0,0-.52-.14.65.65,0,0,0-.45.29.66.66,0,0,0-.75,0,.52.52,0,0,0-.19.61.5.5,0,0,0-.5.36.69.69,0,0,0,.39.82c.21.1.57,0,.62-.15a.55.55,0,0,0,1,.12c.14.3.56.27.66.24a.62.62,0,0,0,.45-.35,1,1,0,0,0,.14.63.71.71,0,0,0,.55.31,1.85,1.85,0,0,0-.07.62c0,.09,0,.19.11.23s.19,0,.25-.13.11-.33.32-.48,0-.23,0-.36a4.63,4.63,0,0,1,.07-.74,1.42,1.42,0,0,0,0-.8.68.68,0,0,0-.34-.41.74.74,0,0,0-.53,0,.67.67,0,0,0-.27-.5A.63.63,0,0,0,69,18.5.61.61,0,0,0,68.63,18.67Z"/><path class="cls-16" d="M68.09,23.94a3.08,3.08,0,0,0,1.27-.41,2,2,0,0,0,.5-.6,1.61,1.61,0,0,1-.27.67,2.8,2.8,0,0,1-1.52.63Z"/><path class="cls-12" d="M68.35,21.73a.21.21,0,1,0,.21-.21A.21.21,0,0,0,68.35,21.73Z"/><path class="cls-12" d="M68.89,21.28l-.42-.15a.23.23,0,0,1,.29-.13A.22.22,0,0,1,68.89,21.28Z"/><path class="cls-12" d="M67,21l-.41.17a.22.22,0,0,1,.12-.29A.22.22,0,0,1,67,21Z"/><path class="cls-12" d="M66.74,21.61a.23.23,0,0,0,.2.22.21.21,0,0,0,.21-.21.2.2,0,0,0-.2-.22A.2.2,0,0,0,66.74,21.61Z"/><polygon class="cls-16" points="67.72 21.56 67.7 22.49 67.13 22.37 67.72 21.56"/><path class="cls-16" d="M68.42,22.69l-.55.21a.28.28,0,0,0,.37.18A.3.3,0,0,0,68.42,22.69Z"/></g></g><g id="Capsule"><path class="cls-13" d="M44.14,63.12A.44.44,0,0,1,44,62.7a1.44,1.44,0,0,1,.66-1.14.49.49,0,0,1,.46-.05l.85.49A.93.93,0,0,1,45,63.62Z"/><path class="cls-4" d="M43,62.45a.93.93,0,0,1,.93-1.61l1.16.67a.49.49,0,0,0-.46.05A1.44,1.44,0,0,0,44,62.7a.44.44,0,0,0,.19.42Z"/><path class="cls-8" d="M43.19,61.08a.36.36,0,0,0,.13.49l1.4.82a1.36,1.36,0,0,0,.2-.65.13.13,0,0,0,0-.06L43.67,61A.36.36,0,0,0,43.19,61.08Z"/><path class="cls-13" d="M44.14,63.12A.44.44,0,0,1,44,62.7a1.44,1.44,0,0,1,.66-1.14.49.49,0,0,1,.46-.05l.85.49A.93.93,0,0,1,45,63.62Z"/><path class="cls-21" d="M44.61,61.56A1.44,1.44,0,0,0,44,62.7a.44.44,0,0,0,.19.42l-.06,0,0,0a.47.47,0,0,1-.2-.43,1.47,1.47,0,0,1,.66-1.14.48.48,0,0,1,.47,0l.11.06A.49.49,0,0,0,44.61,61.56Z"/><path class="cls-24" d="M46.38,62.71h0a1,1,0,0,1-.12.57.94.94,0,0,1-1.27.34l-.85-.5A.44.44,0,0,1,44,62.7a1.55,1.55,0,0,1,0-.29l1.41.82A.7.7,0,0,0,46.38,62.71Z"/><path class="cls-6" d="M46.06,62.75a.36.36,0,0,1-.49.13l-1.43-.83a1.47,1.47,0,0,1,.47-.49l0,0,1.27.73A.37.37,0,0,1,46.06,62.75Z"/><path class="cls-21" d="M42.7,61.08s0,0,0,0l0,0,0,0,0,0h0a.57.57,0,0,1,.16-.11h0l.07,0h0a.71.71,0,0,0,0,1.11l.89.51a1.55,1.55,0,0,0,0,.29.44.44,0,0,0,.19.42L43,62.45a.92.92,0,0,1-.34-1.27.43.43,0,0,1,0-.07Z"/></g><g id="Capsule-2" data-name="Capsule"><path class="cls-13" d="M47.24,57.11a.49.49,0,0,0,.19-.43,1.47,1.47,0,0,0-.66-1.14.46.46,0,0,0-.46,0l-.85.49a.93.93,0,1,0,.93,1.61Z"/><path class="cls-4" d="M48.4,56.43a.92.92,0,0,0,.34-1.27.94.94,0,0,0-1.27-.34l-1.16.68a.46.46,0,0,1,.46,0,1.47,1.47,0,0,1,.66,1.14.49.49,0,0,1-.19.43Z"/><path class="cls-8" d="M48.19,55.07a.36.36,0,0,1-.13.49l-1.41.81a1.43,1.43,0,0,1-.19-.65v-.06l1.24-.72A.36.36,0,0,1,48.19,55.07Z"/><path class="cls-13" d="M47.24,57.11a.49.49,0,0,0,.19-.43,1.47,1.47,0,0,0-.66-1.14.46.46,0,0,0-.46,0l-.85.49a.93.93,0,1,0,.93,1.61Z"/><path class="cls-21" d="M46.77,55.54a1.47,1.47,0,0,1,.66,1.14.49.49,0,0,1-.19.43l.06,0,.05,0a.45.45,0,0,0,.19-.42,1.46,1.46,0,0,0-.65-1.14.46.46,0,0,0-.47,0l-.11.07A.46.46,0,0,1,46.77,55.54Z"/><path class="cls-24" d="M45,56.7h0a.94.94,0,0,0,.12.56.92.92,0,0,0,1.27.34l.85-.49a.49.49,0,0,0,.19-.43,1.45,1.45,0,0,0,0-.28L46,57.21A.7.7,0,0,1,45,56.7Z"/><path class="cls-6" d="M45.32,56.73a.36.36,0,0,0,.49.13L47.24,56a1.42,1.42,0,0,0-.47-.5l-.06,0-1.26.72A.36.36,0,0,0,45.32,56.73Z"/><path class="cls-21" d="M48.68,55.07l0,0,0,0,0,0,0,0,0,0a.91.91,0,0,0-.16-.11h0l-.06,0h0a.69.69,0,0,1,0,1.1l-.88.52a1.45,1.45,0,0,1,0,.28.49.49,0,0,1-.19.43l1.16-.68a.92.92,0,0,0,.34-1.27l-.05-.07Z"/></g><g id="Capsules"><path class="cls-3" d="M13.2,57.47,29,66.58a1.86,1.86,0,0,0,1.69,0l8.64-5a.52.52,0,0,0,0-1L23.53,51.51a1.89,1.89,0,0,0-1.7,0l-8.63,5A.52.52,0,0,0,13.2,57.47Z"/><path class="cls-14" d="M13.2,57,29,66.13a1.86,1.86,0,0,0,1.69,0l8.64-5a.52.52,0,0,0,0-1L23.53,51.05a1.89,1.89,0,0,0-1.7,0L13.2,56C12.73,56.31,12.73,56.74,13.2,57Z"/><path class="cls-14" d="M30.67,66.13l7.79-4.5h0c-2.45,1.26-7.11,3.94-7.8,4.21s-1.09.39-2.37-.35-14.22-8-14.22-8L29,66.13A1.86,1.86,0,0,0,30.67,66.13Z"/><path class="cls-3" d="M34.53,63a.2.2,0,0,1-.21,0L18.59,53.94c-.06,0-.06-.09,0-.12a.22.22,0,0,1,.21,0L34.53,62.9C34.59,62.94,34.59,63,34.53,63Z"/><path class="cls-25" d="M21.85,54.67h0l.16.08.06,0a1.84,1.84,0,0,0,1.42-.13L25,53.79h0a1.12,1.12,0,0,0,.43-.41A1.06,1.06,0,0,0,25,51.92l-.15-.07-.07,0a1.85,1.85,0,0,0-1.42.12l-1.48.86h0a1,1,0,0,0-.43.41,1,1,0,0,0,.38,1.44Z"/><path class="cls-3" d="M25,52.84a1.79,1.79,0,0,0-1.64,0l-1.48.85c-.47.27-.5.7-.06,1a1.79,1.79,0,0,0,1.64,0L25,53.79C25.45,53.52,25.47,53.09,25,52.84Z"/><path class="cls-6" d="M25.44,53.33A1.06,1.06,0,0,0,25,51.92l-.15-.07-.07,0a1.89,1.89,0,0,0-1.24,0c.7-.08,1.13-.1,1.56.27A1.08,1.08,0,0,1,25.44,53.33Z"/><path class="cls-13" d="M22.8,52.62a.42.42,0,0,1,.44,0,1.38,1.38,0,0,1,.62,1.07.46.46,0,0,1-.18.41l-.8.45a.87.87,0,0,1-1.2-.32.88.88,0,0,1,.32-1.2Z"/><path class="cls-4" d="M23.9,52a.89.89,0,0,1,1.2.33.87.87,0,0,1-.32,1.19l-1.1.64a.46.46,0,0,0,.18-.41,1.38,1.38,0,0,0-.62-1.07.42.42,0,0,0-.44,0Z"/><path class="cls-8" d="M24.91,52.8a.32.32,0,0,0-.45-.12l-1.33.76a1.22,1.22,0,0,0,.44.46l.05,0,1.17-.67A.33.33,0,0,0,24.91,52.8Z"/><path class="cls-13" d="M22.8,52.62a.42.42,0,0,1,.44,0,1.38,1.38,0,0,1,.62,1.07.46.46,0,0,1-.18.41l-.8.45a.87.87,0,0,1-1.2-.32.88.88,0,0,1,.32-1.2Z"/><path class="cls-21" d="M23.86,53.73a1.38,1.38,0,0,0-.62-1.07.42.42,0,0,0-.44,0l.06,0,.05,0a.45.45,0,0,1,.44.05A1.38,1.38,0,0,1,24,53.67a.43.43,0,0,1-.18.4l-.11.07A.46.46,0,0,0,23.86,53.73Z"/><path class="cls-3" d="M22.08,54.64h0a1,1,0,0,1-.4-.37.88.88,0,0,1,.32-1.2l.8-.45a.42.42,0,0,1,.44,0,1,1,0,0,1,.21.17l-1.33.77A.66.66,0,0,0,22.08,54.64Z"/><path class="cls-6" d="M22.21,54.36a.33.33,0,0,1,.12-.46l1.34-.78a1.24,1.24,0,0,1,.19.61.15.15,0,0,1,0,.07l-1.19.68A.33.33,0,0,1,22.21,54.36Z"/><path class="cls-21" d="M25.15,52.4a.43.43,0,0,0,0,.05v0l0,0s0,0,0,0v0a.55.55,0,0,1,0,.18h0v.07h0a.66.66,0,0,0-.92-.49l-.84.48a1,1,0,0,0-.21-.17.42.42,0,0,0-.44,0L23.9,52a.89.89,0,0,1,1.2.33l0,.07Z"/><path class="cls-25" d="M16.32,57.9h0l.16.07.06,0A1.85,1.85,0,0,0,18,57.87L19.44,57h0a1,1,0,0,0,.42-.41,1.06,1.06,0,0,0-.38-1.45l-.16-.07-.06,0a1.84,1.84,0,0,0-1.42.13L16.37,56h0a1.12,1.12,0,0,0-.43.41,1.06,1.06,0,0,0,.39,1.45Z"/><path class="cls-3" d="M19.5,56.06a1.82,1.82,0,0,0-1.64,0L16.37,57c-.47.27-.49.69-.05.95a1.82,1.82,0,0,0,1.64,0L19.44,57C19.91,56.74,19.94,56.32,19.5,56.06Z"/><path class="cls-6" d="M19.91,56.55a1.07,1.07,0,0,0-.41-1.41l-.16-.07-.06,0a2,2,0,0,0-1.24,0,1.87,1.87,0,0,1,1.56.27A1.1,1.1,0,0,1,19.91,56.55Z"/><path class="cls-13" d="M17.26,55.84a.45.45,0,0,1,.44,0A1.35,1.35,0,0,1,18.32,57a.43.43,0,0,1-.18.4l-.8.46a.88.88,0,1,1-.87-1.52Z"/><path class="cls-4" d="M18.36,55.21a.88.88,0,1,1,.88,1.52l-1.1.63a.43.43,0,0,0,.18-.4,1.35,1.35,0,0,0-.62-1.07.45.45,0,0,0-.44,0Z"/><path class="cls-8" d="M19.38,56a.34.34,0,0,0-.46-.12l-1.33.76a1.25,1.25,0,0,0,.44.47l0,0,1.18-.68A.34.34,0,0,0,19.38,56Z"/><path class="cls-13" d="M17.26,55.84a.45.45,0,0,1,.44,0A1.35,1.35,0,0,1,18.32,57a.43.43,0,0,1-.18.4l-.8.46a.88.88,0,1,1-.87-1.52Z"/><path class="cls-21" d="M18.32,57a1.35,1.35,0,0,0-.62-1.07.45.45,0,0,0-.44,0l.07,0,0,0a.42.42,0,0,1,.44,0,1.38,1.38,0,0,1,.62,1.08.45.45,0,0,1-.18.4l-.11.06A.43.43,0,0,0,18.32,57Z"/><path class="cls-3" d="M16.55,57.86h0a.84.84,0,0,1-.41-.36.88.88,0,0,1,.33-1.2l.79-.46a.45.45,0,0,1,.44,0,1.12,1.12,0,0,1,.22.16l-1.34.77A.66.66,0,0,0,16.55,57.86Z"/><path class="cls-6" d="M16.67,57.58a.34.34,0,0,1,.12-.46l1.35-.77a1.26,1.26,0,0,1,.18.61V57l-1.19.68A.33.33,0,0,1,16.67,57.58Z"/><path class="cls-21" d="M19.61,55.63s0,0,0,0v.13a.55.55,0,0,1,0,.18h0a.13.13,0,0,1,0,.06h0a.65.65,0,0,0-.91-.49l-.84.48a1.12,1.12,0,0,0-.22-.16.45.45,0,0,0-.44,0l1.1-.63a.88.88,0,0,1,1.2.32.25.25,0,0,1,0,.07Z"/><path class="cls-25" d="M25.83,57h0L26,57l.06,0a1.91,1.91,0,0,0,1.43-.12L29,56.08h0a1,1,0,0,0,.43-.41A1.06,1.06,0,0,0,29,54.21l-.15-.07-.06,0a1.91,1.91,0,0,0-1.43.12l-1.48.86h0a1,1,0,0,0-.43.41A1.06,1.06,0,0,0,25.83,57Z"/><path class="cls-3" d="M29,55.13a1.82,1.82,0,0,0-1.64,0L25.88,56c-.47.27-.49.69-.05.95a1.82,1.82,0,0,0,1.64,0L29,56.08C29.42,55.81,29.44,55.38,29,55.13Z"/><path class="cls-6" d="M29.41,55.62A1.06,1.06,0,0,0,29,54.21l-.15-.07-.06,0a1.89,1.89,0,0,0-1.24,0,1.87,1.87,0,0,1,1.56.27A1.07,1.07,0,0,1,29.41,55.62Z"/><path class="cls-13" d="M26.77,54.91a.47.47,0,0,1,.44,0A1.38,1.38,0,0,1,27.83,56a.44.44,0,0,1-.18.4l-.8.46A.88.88,0,0,1,26,55.37Z"/><path class="cls-4" d="M27.87,54.28a.88.88,0,1,1,.88,1.52l-1.1.63a.44.44,0,0,0,.18-.4A1.38,1.38,0,0,0,27.21,55a.47.47,0,0,0-.44,0Z"/><path class="cls-8" d="M28.89,55.09a.34.34,0,0,0-.46-.12l-1.33.76a1.25,1.25,0,0,0,.44.47l.05,0,1.17-.67A.34.34,0,0,0,28.89,55.09Z"/><path class="cls-13" d="M26.77,54.91a.47.47,0,0,1,.44,0A1.38,1.38,0,0,1,27.83,56a.44.44,0,0,1-.18.4l-.8.46A.88.88,0,0,1,26,55.37Z"/><path class="cls-21" d="M27.83,56A1.38,1.38,0,0,0,27.21,55a.47.47,0,0,0-.44,0l.06,0,.05,0a.42.42,0,0,1,.44,0A1.38,1.38,0,0,1,27.94,56a.46.46,0,0,1-.18.41l-.11.06A.44.44,0,0,0,27.83,56Z"/><path class="cls-3" d="M26.06,56.93h0a.89.89,0,0,1-.41-.36.88.88,0,0,1,.32-1.2l.8-.46a.47.47,0,0,1,.44,0,1.73,1.73,0,0,1,.21.17l-1.33.77A.65.65,0,0,0,26.06,56.93Z"/><path class="cls-6" d="M26.18,56.65a.33.33,0,0,1,.12-.46l1.35-.77a1.26,1.26,0,0,1,.18.61v.06l-1.19.68A.33.33,0,0,1,26.18,56.65Z"/><path class="cls-21" d="M29.12,54.7l0,0v.08a.08.08,0,0,0,0,0v0a1.1,1.1,0,0,1,0,.18h0a.13.13,0,0,0,0,.06h0a.66.66,0,0,0-.92-.49l-.84.48a1.73,1.73,0,0,0-.21-.17.47.47,0,0,0-.44,0l1.1-.63a.88.88,0,0,1,1.2.32.25.25,0,0,0,0,.07Z"/><path class="cls-25" d="M20.29,60.19h0l.16.07.06,0a1.89,1.89,0,0,0,1.42-.13l1.49-.86h0a1.05,1.05,0,0,0,0-1.85l-.16-.07-.06,0a1.89,1.89,0,0,0-1.42.13l-1.49.86h0a1.12,1.12,0,0,0-.43.41,1.06,1.06,0,0,0,.39,1.45Z"/><path class="cls-3" d="M23.47,58.35a1.82,1.82,0,0,0-1.64,0l-1.49.85c-.46.27-.49.7-.05.95a1.82,1.82,0,0,0,1.64,0l1.49-.86C23.88,59,23.91,58.61,23.47,58.35Z"/><path class="cls-6" d="M23.88,58.85a1.06,1.06,0,0,0-.41-1.41l-.16-.07-.06,0a2,2,0,0,0-1.24,0,1.83,1.83,0,0,1,1.56.28A1.08,1.08,0,0,1,23.88,58.85Z"/><path class="cls-13" d="M21.24,58.14a.4.4,0,0,1,.43,0,1.36,1.36,0,0,1,.62,1.07.43.43,0,0,1-.18.4l-.8.46a.88.88,0,0,1-.87-1.52Z"/><path class="cls-4" d="M22.34,57.5A.88.88,0,0,1,23.21,59l-1.1.63a.43.43,0,0,0,.18-.4,1.36,1.36,0,0,0-.62-1.07.4.4,0,0,0-.43,0Z"/><path class="cls-8" d="M23.35,58.32a.34.34,0,0,0-.46-.13L21.56,59a1.39,1.39,0,0,0,.44.46l.06,0,1.17-.67A.34.34,0,0,0,23.35,58.32Z"/><path class="cls-13" d="M21.24,58.14a.4.4,0,0,1,.43,0,1.36,1.36,0,0,1,.62,1.07.43.43,0,0,1-.18.4l-.8.46a.88.88,0,0,1-.87-1.52Z"/><path class="cls-21" d="M22.29,59.25a1.36,1.36,0,0,0-.62-1.07.4.4,0,0,0-.43,0l.06,0,.05,0a.43.43,0,0,1,.43,0,1.33,1.33,0,0,1,.62,1.07.44.44,0,0,1-.18.4l-.11.06A.43.43,0,0,0,22.29,59.25Z"/><path class="cls-3" d="M20.52,60.15h0a.82.82,0,0,1-.4-.36.87.87,0,0,1,.32-1.2l.8-.45a.4.4,0,0,1,.43,0,.87.87,0,0,1,.22.17l-1.33.76A.65.65,0,0,0,20.52,60.15Z"/><path class="cls-6" d="M20.64,59.87a.32.32,0,0,1,.13-.45l1.34-.78a1.26,1.26,0,0,1,.18.61v.06L21.1,60A.34.34,0,0,1,20.64,59.87Z"/><path class="cls-21" d="M23.58,57.92s0,0,0,0V58a.06.06,0,0,1,0,0v0a1.09,1.09,0,0,1,0,.18h0v.06h0a.66.66,0,0,0-.92-.48l-.84.48a.87.87,0,0,0-.22-.17.4.4,0,0,0-.43,0l1.1-.64a.87.87,0,0,1,1.19.32l0,.08Z"/><path class="cls-25" d="M29.8,59.26h0l.15.07.07,0a1.9,1.9,0,0,0,1.42-.13l1.48-.86h0a1,1,0,0,0,.43-.41A1,1,0,0,0,33,56.51l-.16-.08-.06,0a1.92,1.92,0,0,0-1.43.13l-1.48.85h0a1.06,1.06,0,0,0,0,1.86Z"/><path class="cls-3" d="M33,57.42a1.82,1.82,0,0,0-1.64,0l-1.48.86c-.47.27-.49.7-.05.95a1.82,1.82,0,0,0,1.64,0l1.48-.86C33.39,58.1,33.41,57.68,33,57.42Z"/><path class="cls-6" d="M33.38,57.91a1,1,0,0,0-.4-1.4l-.16-.08-.06,0a2,2,0,0,0-1.24,0,1.83,1.83,0,0,1,1.56.28A1.06,1.06,0,0,1,33.38,57.91Z"/><path class="cls-13" d="M30.74,57.2a.45.45,0,0,1,.44,0,1.38,1.38,0,0,1,.62,1.07.43.43,0,0,1-.18.4l-.8.46a.88.88,0,1,1-.88-1.52Z"/><path class="cls-4" d="M31.84,56.57a.88.88,0,0,1,.88,1.52l-1.1.63a.43.43,0,0,0,.18-.4,1.38,1.38,0,0,0-.62-1.07.45.45,0,0,0-.44,0Z"/><path class="cls-8" d="M32.86,57.39a.33.33,0,0,0-.46-.13L31.07,58a1.3,1.3,0,0,0,.44.46l0,0,1.18-.68A.33.33,0,0,0,32.86,57.39Z"/><path class="cls-13" d="M30.74,57.2a.45.45,0,0,1,.44,0,1.38,1.38,0,0,1,.62,1.07.43.43,0,0,1-.18.4l-.8.46a.88.88,0,1,1-.88-1.52Z"/><path class="cls-21" d="M31.8,58.32a1.38,1.38,0,0,0-.62-1.07.45.45,0,0,0-.44,0l.07,0,0,0a.47.47,0,0,1,.44,0,1.38,1.38,0,0,1,.62,1.08.44.44,0,0,1-.18.4l-.11.06A.43.43,0,0,0,31.8,58.32Z"/><path class="cls-3" d="M30,59.22h0a.84.84,0,0,1-.41-.36.88.88,0,0,1,.32-1.2l.8-.46a.45.45,0,0,1,.44,0,.68.68,0,0,1,.21.17l-1.33.76A.66.66,0,0,0,30,59.22Z"/><path class="cls-6" d="M30.15,58.94a.34.34,0,0,1,.12-.46l1.35-.77a1.26,1.26,0,0,1,.18.61v.06l-1.19.69A.34.34,0,0,1,30.15,58.94Z"/><path class="cls-21" d="M33.09,57l0,0v.13a1.1,1.1,0,0,1,0,.18h0s0,0,0,.06h0a.66.66,0,0,0-.92-.49l-.84.49a.68.68,0,0,0-.21-.17.45.45,0,0,0-.44,0l1.1-.63a.88.88,0,0,1,1.2.32.43.43,0,0,0,0,.07Z"/><path class="cls-25" d="M24.26,62.48h0l.16.08.06,0a1.84,1.84,0,0,0,1.42-.13l1.49-.85h0a1.12,1.12,0,0,0,.43-.41,1.06,1.06,0,0,0-.39-1.45l-.16-.07-.06,0a1.84,1.84,0,0,0-1.42.12l-1.48.86h0a1.05,1.05,0,0,0,0,1.85Z"/><path class="cls-3" d="M27.44,60.65a1.79,1.79,0,0,0-1.64,0l-1.48.86c-.47.27-.5.69-.06.94a1.79,1.79,0,0,0,1.64,0l1.49-.85C27.86,61.33,27.88,60.9,27.44,60.65Z"/><path class="cls-6" d="M27.85,61.14a1.07,1.07,0,0,0-.41-1.41l-.16-.07-.06,0a1.89,1.89,0,0,0-1.24,0c.7-.08,1.13-.1,1.56.27A1.08,1.08,0,0,1,27.85,61.14Z"/><path class="cls-13" d="M25.21,60.43a.42.42,0,0,1,.44,0,1.38,1.38,0,0,1,.62,1.08.44.44,0,0,1-.19.4l-.79.46a.88.88,0,0,1-1.2-.33.87.87,0,0,1,.32-1.19Z"/><path class="cls-4" d="M26.31,59.8a.87.87,0,0,1,1.2.32.89.89,0,0,1-.33,1.2l-1.1.63a.44.44,0,0,0,.19-.4,1.38,1.38,0,0,0-.62-1.08.42.42,0,0,0-.44,0Z"/><path class="cls-8" d="M27.32,60.61a.33.33,0,0,0-.46-.12l-1.32.76a1.27,1.27,0,0,0,.43.46l.06,0,1.17-.67A.33.33,0,0,0,27.32,60.61Z"/><path class="cls-13" d="M25.21,60.43a.42.42,0,0,1,.44,0,1.38,1.38,0,0,1,.62,1.08.44.44,0,0,1-.19.4l-.79.46a.88.88,0,0,1-1.2-.33.87.87,0,0,1,.32-1.19Z"/><path class="cls-21" d="M26.27,61.55a1.38,1.38,0,0,0-.62-1.08.42.42,0,0,0-.44,0l.06,0,.05,0a.45.45,0,0,1,.44,0,1.38,1.38,0,0,1,.62,1.07.41.41,0,0,1-.19.4l-.11.07A.44.44,0,0,0,26.27,61.55Z"/><path class="cls-3" d="M24.49,62.45h0a.89.89,0,0,1-.4-.37.87.87,0,0,1,.32-1.19l.8-.46a.42.42,0,0,1,.44,0,1.57,1.57,0,0,1,.21.17l-1.33.77A.66.66,0,0,0,24.49,62.45Z"/><path class="cls-6" d="M24.61,62.17a.34.34,0,0,1,.13-.46l1.34-.78a1.24,1.24,0,0,1,.19.62s0,0,0,.06l-1.19.68A.34.34,0,0,1,24.61,62.17Z"/><path class="cls-21" d="M27.55,60.22l0,0v.07a.09.09,0,0,1,0,.05v0a1.09,1.09,0,0,1,0,.18h0v.07h0a.66.66,0,0,0-.92-.49l-.84.48a1.57,1.57,0,0,0-.21-.17.42.42,0,0,0-.44,0l1.1-.63a.87.87,0,0,1,1.2.32l0,.07Z"/><path class="cls-25" d="M33.77,61.55h0l.16.08.06,0a1.85,1.85,0,0,0,1.42-.13l1.48-.86h0a1.12,1.12,0,0,0,.43-.41A1.07,1.07,0,0,0,37,58.8l-.16-.07-.06,0a1.84,1.84,0,0,0-1.42.12l-1.49.86h0a1.05,1.05,0,0,0,0,1.85Z"/><path class="cls-3" d="M37,59.72a1.79,1.79,0,0,0-1.64,0l-1.49.85c-.47.27-.49.7,0,.95a1.79,1.79,0,0,0,1.64,0l1.48-.86C37.36,60.39,37.39,60,37,59.72Z"/><path class="cls-6" d="M37.36,60.21A1.07,1.07,0,0,0,37,58.8l-.16-.07-.06,0a1.88,1.88,0,0,0-1.24,0,1.83,1.83,0,0,1,1.56.28A1.08,1.08,0,0,1,37.36,60.21Z"/><path class="cls-13" d="M34.71,59.5a.42.42,0,0,1,.44,0,1.38,1.38,0,0,1,.62,1.07.46.46,0,0,1-.18.41l-.8.45a.87.87,0,0,1-1.2-.32.89.89,0,0,1,.33-1.2Z"/><path class="cls-4" d="M35.81,58.86a.88.88,0,0,1,1.2.33.86.86,0,0,1-.32,1.19l-1.1.64a.46.46,0,0,0,.18-.41,1.38,1.38,0,0,0-.62-1.07.42.42,0,0,0-.44,0Z"/><path class="cls-8" d="M36.83,59.68a.33.33,0,0,0-.46-.12L35,60.32a1.3,1.3,0,0,0,.44.46l.05,0,1.18-.67A.34.34,0,0,0,36.83,59.68Z"/><path class="cls-13" d="M34.71,59.5a.42.42,0,0,1,.44,0,1.38,1.38,0,0,1,.62,1.07.46.46,0,0,1-.18.41l-.8.45a.87.87,0,0,1-1.2-.32.89.89,0,0,1,.33-1.2Z"/><path class="cls-21" d="M35.77,60.61a1.38,1.38,0,0,0-.62-1.07.42.42,0,0,0-.44,0l.07,0,0,0a.45.45,0,0,1,.44,0,1.34,1.34,0,0,1,.62,1.07.43.43,0,0,1-.18.4l-.11.07A.46.46,0,0,0,35.77,60.61Z"/><path class="cls-3" d="M34,61.52h0a.92.92,0,0,1-.41-.37.89.89,0,0,1,.33-1.2l.79-.45a.42.42,0,0,1,.44,0,.87.87,0,0,1,.22.17L34,60.48A.66.66,0,0,0,34,61.52Z"/><path class="cls-6" d="M34.12,61.24a.34.34,0,0,1,.12-.46L35.59,60a1.33,1.33,0,0,1,.18.61v.06l-1.19.69A.34.34,0,0,1,34.12,61.24Z"/><path class="cls-21" d="M37.06,59.28s0,0,0,0v.07s0,0,0,0v0a.65.65,0,0,1,0,.19h0a.17.17,0,0,1,0,.07h0a.65.65,0,0,0-.91-.49l-.84.48a.87.87,0,0,0-.22-.17.42.42,0,0,0-.44,0l1.1-.64a.88.88,0,0,1,1.2.33.16.16,0,0,1,0,.07Z"/><path class="cls-25" d="M28.23,64.78h0l.16.07.06,0a1.87,1.87,0,0,0,1.43-.12l1.48-.86h0a1.06,1.06,0,0,0,0-1.86L31.26,62l-.07,0a1.89,1.89,0,0,0-1.42.12l-1.48.86h0a1,1,0,0,0-.43.41,1.06,1.06,0,0,0,.38,1.45Z"/><path class="cls-3" d="M31.41,62.94a1.82,1.82,0,0,0-1.64,0l-1.48.86c-.47.27-.49.69-.06,1a1.84,1.84,0,0,0,1.65,0l1.48-.86C31.83,63.62,31.85,63.19,31.41,62.94Z"/><path class="cls-6" d="M31.82,63.43A1.06,1.06,0,0,0,31.41,62L31.26,62l-.07,0A1.89,1.89,0,0,0,30,62a1.88,1.88,0,0,1,1.57.27A1.07,1.07,0,0,1,31.82,63.43Z"/><path class="cls-13" d="M29.18,62.72a.47.47,0,0,1,.44,0,1.38,1.38,0,0,1,.62,1.08.44.44,0,0,1-.18.4l-.8.46a.88.88,0,0,1-.88-1.52Z"/><path class="cls-4" d="M30.28,62.09a.88.88,0,0,1,.88,1.52l-1.1.63a.44.44,0,0,0,.18-.4,1.38,1.38,0,0,0-.62-1.08.47.47,0,0,0-.44,0Z"/><path class="cls-8" d="M31.3,62.9a.34.34,0,0,0-.46-.12l-1.33.76A1.18,1.18,0,0,0,30,64L30,64l1.17-.67A.34.34,0,0,0,31.3,62.9Z"/><path class="cls-13" d="M29.18,62.72a.47.47,0,0,1,.44,0,1.38,1.38,0,0,1,.62,1.08.44.44,0,0,1-.18.4l-.8.46a.88.88,0,0,1-.88-1.52Z"/><path class="cls-21" d="M30.24,63.84a1.38,1.38,0,0,0-.62-1.08.47.47,0,0,0-.44,0l.06,0,.05,0a.42.42,0,0,1,.44,0,1.38,1.38,0,0,1,.62,1.07.46.46,0,0,1-.18.41l-.11.06A.44.44,0,0,0,30.24,63.84Z"/><path class="cls-3" d="M28.46,64.74h0a.92.92,0,0,1-.4-.36.88.88,0,0,1,.32-1.2l.8-.46a.47.47,0,0,1,.44,0l.21.17-1.33.77A.66.66,0,0,0,28.46,64.74Z"/><path class="cls-6" d="M28.59,64.46a.33.33,0,0,1,.12-.46l1.35-.77a1.26,1.26,0,0,1,.18.61.13.13,0,0,1,0,.06l-1.18.68A.33.33,0,0,1,28.59,64.46Z"/><path class="cls-21" d="M31.53,62.51a.43.43,0,0,1,0,.05l0,0v0a.08.08,0,0,0,0,0v0a.55.55,0,0,1,0,.18h0v.06h0a.66.66,0,0,0-.92-.49l-.84.48-.21-.17a.47.47,0,0,0-.44,0l1.1-.63a.88.88,0,0,1,1.2.32.25.25,0,0,0,0,.07Z"/></g><g id="Pill"><path class="cls-2" d="M40.15,53.32l-.06-.13-.06-.1a1.37,1.37,0,0,0-.38-.38v.39l-.34-.2v-.39a3.8,3.8,0,0,0-3.23.09,1.44,1.44,0,0,0-.66.72.19.19,0,0,0,0,.07.64.64,0,0,0,0,.2v.78a.91.91,0,0,0,.18.53,1.76,1.76,0,0,0,.53.46,3.77,3.77,0,0,0,3.4,0,1.19,1.19,0,0,0,.71-1v-.78A.84.84,0,0,0,40.15,53.32Z"/><path class="cls-24" d="M38.54,52.27a3.77,3.77,0,0,0-2.46.33,1.44,1.44,0,0,0-.66.72.19.19,0,0,0,0,.07.64.64,0,0,0,0,.2v.78a.91.91,0,0,0,.18.53,1.76,1.76,0,0,0,.53.46,3.77,3.77,0,0,0,2.46.33Z"/><path class="cls-14" d="M36.08,52.6c-.88.51-.94,1.32-.16,1.87l3.39-2A3.8,3.8,0,0,0,36.08,52.6Z"/><path class="cls-6" d="M35.92,54.26s-.94-.72.1-1.62a1,1,0,0,0-.1,1.83l3.39-2Z"/><path class="cls-14" d="M39.65,52.71l-3.39,1.95a3.8,3.8,0,0,0,3.23-.09C40.37,54.06,40.42,53.25,39.65,52.71Z"/><path class="cls-6" d="M36.26,54.66a3.8,3.8,0,0,0,3.23-.09,1.85,1.85,0,0,0,.27-.19,3.85,3.85,0,0,1-3.12.25l3-1.92Z"/><polygon class="cls-3" points="39.31 52.9 35.92 54.87 35.92 54.47 39.31 52.51 39.31 52.9"/><polygon class="cls-19" points="36.26 54.66 36.26 55.07 35.92 54.87 36.26 54.66"/></g><g id="Pill-2" data-name="Pill"><path class="cls-2" d="M41.09,52.06a.38.38,0,0,0-.06-.13.21.21,0,0,0-.06-.1,1.4,1.4,0,0,0-.38-.39v.4l-.34-.2v-.39a3.8,3.8,0,0,0-3.23.09,1.44,1.44,0,0,0-.66.72s0,0,0,.06a1.5,1.5,0,0,0,0,.2v.79a1,1,0,0,0,.17.53,1.72,1.72,0,0,0,.53.45,3.73,3.73,0,0,0,3.41,0,1.18,1.18,0,0,0,.7-1v-.79A.82.82,0,0,0,41.09,52.06Z"/><path class="cls-24" d="M39.48,51a3.85,3.85,0,0,0-2.46.34,1.44,1.44,0,0,0-.66.72s0,0,0,.06a1.5,1.5,0,0,0,0,.2v.79a1,1,0,0,0,.17.53,1.72,1.72,0,0,0,.53.45,3.72,3.72,0,0,0,2.46.34Z"/><path class="cls-14" d="M37,51.34c-.88.51-.93,1.32-.16,1.86l3.39-2A3.8,3.8,0,0,0,37,51.34Z"/><path class="cls-6" d="M36.86,53s-.94-.72.11-1.62c-.83.51-.87,1.29-.11,1.82l3.39-2Z"/><path class="cls-14" d="M40.59,51.44l-3.39,2a3.8,3.8,0,0,0,3.23-.09C41.31,52.8,41.37,52,40.59,51.44Z"/><path class="cls-6" d="M37.2,53.4a3.8,3.8,0,0,0,3.23-.09,2,2,0,0,0,.28-.2,3.9,3.9,0,0,1-3.13.26l3-1.93Z"/><polygon class="cls-3" points="40.25 51.64 36.86 53.61 36.86 53.2 40.25 51.25 40.25 51.64"/><polygon class="cls-19" points="37.2 53.4 37.2 53.8 36.86 53.61 37.2 53.4"/></g><g id="Coins"><path class="cls-4" d="M67,57.45a2.43,2.43,0,0,0-.91-.85,6,6,0,0,0-5.43,0,2.51,2.51,0,0,0-.91.85H59.5v.78h0a1.93,1.93,0,0,0,1.12,1.5,6,6,0,0,0,5.43,0,1.93,1.93,0,0,0,1.12-1.5h0v-.78Z"/><g class="cls-26"><path d="M67,57.45a2.43,2.43,0,0,0-.91-.85,6,6,0,0,0-5.43,0,2.51,2.51,0,0,0-.91.85H59.5v.78h0a1.93,1.93,0,0,0,1.12,1.5,6,6,0,0,0,5.43,0,1.93,1.93,0,0,0,1.12-1.5h0v-.78Z"/></g><g class="cls-27"><path d="M63.34,56a5.58,5.58,0,0,0-2.72.65,2.51,2.51,0,0,0-.91.85H59.5v.78h0a1.93,1.93,0,0,0,1.12,1.5,5.58,5.58,0,0,0,2.72.65Z"/></g><g class="cls-27"><path d="M61.24,56.31a4.39,4.39,0,0,0-.62.29,2.51,2.51,0,0,0-.91.85H59.5v.78h0a1.93,1.93,0,0,0,1.12,1.5,4.39,4.39,0,0,0,.62.29Z"/></g><path class="cls-4" d="M65.43,56.31a3.92,3.92,0,0,1,.62.29,2.43,2.43,0,0,1,.91.85h.21v.78h0a1.93,1.93,0,0,1-1.12,1.5,3.92,3.92,0,0,1-.62.29Z"/><path class="cls-4" d="M66.05,55.88a6,6,0,0,0-5.43,0c-1.49.87-1.49,2.27,0,3.13a6,6,0,0,0,5.43,0C67.55,58.15,67.55,56.75,66.05,55.88Z"/><g class="cls-28"><path d="M66.05,55.88a6,6,0,0,0-5.43,0c-1.49.87-1.49,2.27,0,3.13a6,6,0,0,0,5.43,0C67.55,58.15,67.55,56.75,66.05,55.88Z"/></g><path class="cls-4" d="M65.1,56.46a4.29,4.29,0,0,0-3.53,0,1.19,1.19,0,0,0-.78,1,1.21,1.21,0,0,0,.78,1,4.29,4.29,0,0,0,3.53,0,1.21,1.21,0,0,0,.78-1A1.19,1.19,0,0,0,65.1,56.46Z"/><g class="cls-29"><path d="M65.1,56.46a4.29,4.29,0,0,0-3.53,0,1.19,1.19,0,0,0-.78,1,1.21,1.21,0,0,0,.78,1,4.29,4.29,0,0,0,3.53,0,1.21,1.21,0,0,0,.78-1A1.19,1.19,0,0,0,65.1,56.46Z"/></g><path class="cls-4" d="M66,56a5.78,5.78,0,0,0-5.25,0,1.49,1.49,0,0,0,0,2.84,5.78,5.78,0,0,0,5.25,0A1.49,1.49,0,0,0,66,56Zm-.86,2.41a4.29,4.29,0,0,1-3.53,0,1.21,1.21,0,0,1-.78-1,1.19,1.19,0,0,1,.78-1,4.29,4.29,0,0,1,3.53,0,1.19,1.19,0,0,1,.78,1A1.21,1.21,0,0,1,65.1,58.44Z"/><g class="cls-28"><path d="M65,58.32c.94-.48.94-1.26,0-1.75a4.22,4.22,0,0,0-3.41,0c-.94.49-.94,1.27,0,1.75A4.14,4.14,0,0,0,65,58.32Z"/></g><path class="cls-4" d="M65,58.32c.94-.48.94-1.26,0-1.75a4.22,4.22,0,0,0-3.41,0c-.94.49-.94,1.27,0,1.75A4.14,4.14,0,0,0,65,58.32Z"/><g class="cls-30"><path d="M65,58.32c.94-.48.94-1.26,0-1.75a4.22,4.22,0,0,0-3.41,0c-.94.49-.94,1.27,0,1.75A4.14,4.14,0,0,0,65,58.32Z"/></g><path class="cls-4" d="M65,56.9a4.22,4.22,0,0,0-3.41,0,1.18,1.18,0,0,0-.68.71,1.18,1.18,0,0,0,.68.71,4.14,4.14,0,0,0,3.41,0,1.23,1.23,0,0,0,.69-.71A1.23,1.23,0,0,0,65,56.9Z"/><g class="cls-31"><path d="M65,56.9a4.22,4.22,0,0,0-3.41,0,1.18,1.18,0,0,0-.68.71,1.18,1.18,0,0,0,.68.71,4.14,4.14,0,0,0,3.41,0,1.23,1.23,0,0,0,.69-.71A1.23,1.23,0,0,0,65,56.9Z"/></g><polygon class="cls-4" points="63.56 56.59 63.56 56.95 63.44 57.07 63.22 57.31 63.22 56.94 63.56 56.59"/><g class="cls-32"><polygon points="63.56 56.59 63.56 56.95 63.44 57.07 63.22 57.31 63.22 56.94 63.56 56.59"/></g><path class="cls-4" d="M63.22,56.94v.21a1.94,1.94,0,0,1-.34.09h-.15l-.07,0c-.09-.05-.1-.13.06-.22A.56.56,0,0,1,63.22,56.94Z"/><g class="cls-33"><path d="M63.22,56.94v.21a1.94,1.94,0,0,1-.34.09h-.15l-.07,0c-.09-.05-.1-.13.06-.22A.56.56,0,0,1,63.22,56.94Z"/></g><path class="cls-4" d="M64.82,57.94v.31l-.39.22-.28-.16a1.5,1.5,0,0,1-1.11,0v-.31l.18-.17-.18,0a1.09,1.09,0,0,1-.86-.09c-.18-.1-.26-.21-.26-.33v-.29l0-.13-.1-.07v-.3l.29.16a.46.46,0,0,0-.22.33h0c0,.11.09.21.26.31a1.27,1.27,0,0,0,1.09,0c.32-.11.55-.23.73-.12s.08.14,0,.22a.65.65,0,0,1-.54,0l-.37.36.2.06a1.52,1.52,0,0,0,.91-.11l.28.17Z"/><g class="cls-34"><path d="M61.92,57.2h0c0,.11.09.21.26.31a1.27,1.27,0,0,0,1.09,0c.32-.11.55-.23.73-.12s.08.14,0,.22a.65.65,0,0,1-.54,0l-.37.36.2.06a1.52,1.52,0,0,0,.91-.11l.28.17.39-.23v.31l-.39.22-.28-.16a1.5,1.5,0,0,1-1.11,0v-.31l.18-.17-.18,0a1.09,1.09,0,0,1-.86-.09c-.18-.1-.26-.21-.26-.33v-.29l0-.13"/></g><g class="cls-33"><path d="M61.85,56.71V57l.1.07h0a.72.72,0,0,1,.19-.21Z"/></g><path class="cls-4" d="M64.76,57.74a.33.33,0,0,1,0,.15l-.2-.11a.37.37,0,0,0,.22-.3C64.76,57.57,64.76,57.73,64.76,57.74Z"/><g class="cls-32"><path d="M64.76,57.74a.33.33,0,0,1,0,.15l-.2-.11a.37.37,0,0,0,.22-.3C64.76,57.57,64.76,57.73,64.76,57.74Z"/></g><path class="cls-4" d="M64.76,57.91l-.23-.13a.38.38,0,0,0,.23-.34v0a.4.4,0,0,0-.24-.3h0A1,1,0,0,0,64,57h-.18l-.25,0-.12,0-.16.06-.06,0a1.94,1.94,0,0,1-.34.09h-.15l-.07,0c-.09-.05-.1-.13.06-.22a.56.56,0,0,1,.5-.05l.34-.35a1.42,1.42,0,0,0-1,.06l-.29-.17-.39.23.29.16a.46.46,0,0,0-.22.33h0c0,.11.09.21.26.31a1.27,1.27,0,0,0,1.09,0c.32-.11.55-.23.73-.12s.08.14,0,.22a.65.65,0,0,1-.54,0l-.37.36.2.06.35,0a1.84,1.84,0,0,0,.56-.14l.28.17.39-.23Z"/><polygon class="cls-4" points="64.15 58 64.15 58.3 64.43 58.47 64.43 58.17 64.15 58"/><g class="cls-33"><polygon points="64.15 58 64.15 58.3 64.43 58.47 64.43 58.17 64.15 58"/></g><polygon class="cls-13" points="61.85 56.71 62.24 56.48 62.53 56.65 62.24 56.53 61.85 56.71"/><path class="cls-13" d="M62.72,57a.56.56,0,0,1,.5-.05l.34-.35-.34.31A.54.54,0,0,0,62.72,57Z"/><path class="cls-13" d="M63,58.05l.2.06.35,0a1.36,1.36,0,0,1-.49-.1l.31-.35Z"/><polygon class="cls-13" points="64.15 58 64.43 58.13 64.82 57.94 64.43 58.17 64.15 58"/><path class="cls-13" d="M60.74,56.08a6.37,6.37,0,0,1,2.6-.68,5.28,5.28,0,0,0-2.63.63,1.74,1.74,0,0,0-1,1.42S59.7,56.71,60.74,56.08Z"/><path class="cls-13" d="M63,59.66a5.73,5.73,0,0,0,3-.65,1.79,1.79,0,0,0,1.1-1.81A1.84,1.84,0,0,1,66,59,6.72,6.72,0,0,1,63,59.66Z"/><path class="cls-4" d="M66.7,56.34a2.47,2.47,0,0,0-.92-.85,6,6,0,0,0-5.42,0,2.55,2.55,0,0,0-.92.85h-.2v.78h0a1.93,1.93,0,0,0,1.12,1.5,6,6,0,0,0,5.42,0,2,2,0,0,0,1.13-1.5h0v-.78Z"/><g class="cls-26"><path d="M66.7,56.34a2.47,2.47,0,0,0-.92-.85,6,6,0,0,0-5.42,0,2.55,2.55,0,0,0-.92.85h-.2v.78h0a1.93,1.93,0,0,0,1.12,1.5,6,6,0,0,0,5.42,0,2,2,0,0,0,1.13-1.5h0v-.78Z"/></g><g class="cls-27"><path d="M63.07,54.84a5.57,5.57,0,0,0-2.71.65,2.55,2.55,0,0,0-.92.85h-.2v.78h0a1.93,1.93,0,0,0,1.12,1.5,5.46,5.46,0,0,0,2.71.65Z"/></g><g class="cls-27"><path d="M61,55.2a5.07,5.07,0,0,0-.62.29,2.55,2.55,0,0,0-.92.85h-.2v.78h0a1.93,1.93,0,0,0,1.12,1.5,3.92,3.92,0,0,0,.62.29Z"/></g><path class="cls-4" d="M65.17,55.2a4.92,4.92,0,0,1,.61.29,2.47,2.47,0,0,1,.92.85h.21v.78h0a2,2,0,0,1-1.13,1.5,3.81,3.81,0,0,1-.61.29Z"/><path class="cls-4" d="M65.78,54.77a6,6,0,0,0-5.42,0c-1.5.87-1.5,2.27,0,3.14a6,6,0,0,0,5.42,0C67.28,57,67.28,55.64,65.78,54.77Z"/><g class="cls-28"><path d="M65.78,54.77a6,6,0,0,0-5.42,0c-1.5.87-1.5,2.27,0,3.14a6,6,0,0,0,5.42,0C67.28,57,67.28,55.64,65.78,54.77Z"/></g><path class="cls-4" d="M64.84,55.35A3.88,3.88,0,0,0,63.07,55a3.84,3.84,0,0,0-1.76.38,1,1,0,0,0,0,2,3.84,3.84,0,0,0,1.76.38,3.88,3.88,0,0,0,1.77-.38,1,1,0,0,0,0-2Z"/><g class="cls-29"><path d="M64.84,55.35A3.88,3.88,0,0,0,63.07,55a3.84,3.84,0,0,0-1.76.38,1,1,0,0,0,0,2,3.84,3.84,0,0,0,1.76.38,3.88,3.88,0,0,0,1.77-.38,1,1,0,0,0,0-2Z"/></g><path class="cls-4" d="M65.7,54.92a5.8,5.8,0,0,0-5.26,0,1.49,1.49,0,0,0,0,2.84,5.8,5.8,0,0,0,5.26,0,1.49,1.49,0,0,0,0-2.84Zm-.86,2.41a3.88,3.88,0,0,1-1.77.38,3.84,3.84,0,0,1-1.76-.38,1,1,0,0,1,0-2A3.84,3.84,0,0,1,63.07,55a3.88,3.88,0,0,1,1.77.38,1,1,0,0,1,0,2Z"/><g class="cls-28"><path d="M64.78,57.22c.94-.49.94-1.27,0-1.76a4.22,4.22,0,0,0-3.41,0c-.95.49-.95,1.27,0,1.76A4.22,4.22,0,0,0,64.78,57.22Z"/></g><path class="cls-4" d="M64.78,57.22c.94-.49.94-1.27,0-1.76a4.22,4.22,0,0,0-3.41,0c-.95.49-.95,1.27,0,1.76A4.22,4.22,0,0,0,64.78,57.22Z"/><g class="cls-30"><path d="M64.78,57.22c.94-.49.94-1.27,0-1.76a4.22,4.22,0,0,0-3.41,0c-.95.49-.95,1.27,0,1.76A4.22,4.22,0,0,0,64.78,57.22Z"/></g><path class="cls-4" d="M64.78,55.79a4.22,4.22,0,0,0-3.41,0,1.23,1.23,0,0,0-.69.71,1.25,1.25,0,0,0,.69.72,4.22,4.22,0,0,0,3.41,0,1.2,1.2,0,0,0,.68-.72A1.18,1.18,0,0,0,64.78,55.79Z"/><g class="cls-31"><path d="M64.78,55.79a4.22,4.22,0,0,0-3.41,0,1.23,1.23,0,0,0-.69.71,1.25,1.25,0,0,0,.69.72,4.22,4.22,0,0,0,3.41,0,1.2,1.2,0,0,0,.68-.72A1.18,1.18,0,0,0,64.78,55.79Z"/></g><polygon class="cls-4" points="63.3 55.48 63.3 55.84 63.18 55.96 62.96 56.2 62.96 55.83 63.3 55.48"/><g class="cls-32"><polygon points="63.3 55.48 63.3 55.84 63.18 55.96 62.96 56.2 62.96 55.83 63.3 55.48"/></g><path class="cls-4" d="M63,55.83V56l-.35.1h-.14l-.07,0c-.09-.05-.1-.12.06-.22A.56.56,0,0,1,63,55.83Z"/><g class="cls-33"><path d="M63,55.83V56l-.35.1h-.14l-.07,0c-.09-.05-.1-.12.06-.22A.56.56,0,0,1,63,55.83Z"/></g><path class="cls-4" d="M64.56,56.83v.31l-.39.22-.28-.16a1.5,1.5,0,0,1-1.11,0v-.31l.17-.17-.17,0a1.17,1.17,0,0,1-.87-.1c-.17-.1-.25-.21-.25-.32v-.3l0-.13-.1-.06V55.6l.28.17a.43.43,0,0,0-.21.32h0c0,.11.08.21.25.31a1.27,1.27,0,0,0,1.09,0c.32-.11.55-.23.74-.12s.08.14-.05.22a.67.67,0,0,1-.55,0l-.36.36A.66.66,0,0,0,63,57a1.53,1.53,0,0,0,.91-.11l.28.17Z"/><g class="cls-34"><path d="M61.66,56.09h0c0,.11.08.21.25.31a1.27,1.27,0,0,0,1.09,0c.32-.11.55-.23.74-.12s.08.14-.05.22a.67.67,0,0,1-.55,0l-.36.36A.66.66,0,0,0,63,57a1.53,1.53,0,0,0,.91-.11l.28.17.39-.23v.31l-.39.22-.28-.16a1.5,1.5,0,0,1-1.11,0v-.31l.17-.17-.17,0a1.17,1.17,0,0,1-.87-.1c-.17-.1-.25-.21-.25-.32v-.3l0-.13"/></g><g class="cls-33"><path d="M61.59,55.6v.31l.1.06h0a.67.67,0,0,1,.18-.2Z"/></g><path class="cls-4" d="M64.49,56.63a.61.61,0,0,1,0,.15l-.2-.11a.37.37,0,0,0,.22-.29Z"/><g class="cls-32"><path d="M64.49,56.63a.61.61,0,0,1,0,.15l-.2-.11a.37.37,0,0,0,.22-.29Z"/></g><path class="cls-4" d="M64.49,56.8l-.22-.13a.38.38,0,0,0,.22-.34v0c0-.11-.09-.21-.25-.3h0a1,1,0,0,0-.51-.14h-.18l-.25,0-.12,0L63,56,63,56l-.35.1h-.14l-.07,0c-.09-.05-.1-.12.06-.22a.56.56,0,0,1,.5-.05l.34-.35a1.5,1.5,0,0,0-1,.06L62,55.38l-.39.22.28.17a.43.43,0,0,0-.21.32h0c0,.11.08.21.25.31a1.27,1.27,0,0,0,1.09,0c.32-.11.55-.23.74-.12s.08.14-.05.22a.63.63,0,0,1-.55,0l-.36.36A.66.66,0,0,0,63,57a1.42,1.42,0,0,0,.35,0,1.59,1.59,0,0,0,.55-.14l.29.17.39-.23Z"/><polygon class="cls-4" points="63.88 56.89 63.88 57.2 64.17 57.36 64.17 57.06 63.88 56.89"/><g class="cls-33"><polygon points="63.88 56.89 63.88 57.2 64.17 57.36 64.17 57.06 63.88 56.89"/></g><polygon class="cls-13" points="61.59 55.6 61.98 55.38 62.26 55.54 61.98 55.42 61.59 55.6"/><path class="cls-13" d="M62.46,55.88a.56.56,0,0,1,.5-.05l.34-.35-.34.31A.54.54,0,0,0,62.46,55.88Z"/><path class="cls-13" d="M62.78,56.94A.66.66,0,0,0,63,57a1.42,1.42,0,0,0,.35,0,1.44,1.44,0,0,1-.5-.1l.31-.35Z"/><polygon class="cls-13" points="63.88 56.89 64.17 57.02 64.56 56.84 64.17 57.06 63.88 56.89"/><path class="cls-13" d="M60.47,55a6.41,6.41,0,0,1,2.6-.68,5.41,5.41,0,0,0-2.63.63,1.75,1.75,0,0,0-1,1.42A1.94,1.94,0,0,1,60.47,55Z"/><path class="cls-13" d="M62.78,58.55a5.69,5.69,0,0,0,3-.64,1.78,1.78,0,0,0,1.1-1.82,1.85,1.85,0,0,1-1.16,1.78A6.64,6.64,0,0,1,62.78,58.55Z"/><path class="cls-4" d="M67.25,55.27a2.47,2.47,0,0,0-.92-.85,6,6,0,0,0-5.42,0,2.55,2.55,0,0,0-.92.85h-.2v.78h0a1.93,1.93,0,0,0,1.12,1.5,6,6,0,0,0,5.42,0,2,2,0,0,0,1.13-1.5h0v-.78Z"/><g class="cls-26"><path d="M67.25,55.27a2.47,2.47,0,0,0-.92-.85,6,6,0,0,0-5.42,0,2.55,2.55,0,0,0-.92.85h-.2v.78h0a1.93,1.93,0,0,0,1.12,1.5,6,6,0,0,0,5.42,0,2,2,0,0,0,1.13-1.5h0v-.78Z"/></g><g class="cls-27"><path d="M63.62,53.77a5.57,5.57,0,0,0-2.71.65,2.55,2.55,0,0,0-.92.85h-.2v.78h0a1.93,1.93,0,0,0,1.12,1.5,5.57,5.57,0,0,0,2.71.65Z"/></g><g class="cls-27"><path d="M61.53,54.13a3.92,3.92,0,0,0-.62.29,2.55,2.55,0,0,0-.92.85h-.2v.78h0a1.93,1.93,0,0,0,1.12,1.5,3.92,3.92,0,0,0,.62.29Z"/></g><path class="cls-4" d="M65.72,54.13a4.27,4.27,0,0,1,.61.29,2.47,2.47,0,0,1,.92.85h.21v.78h0a2,2,0,0,1-1.13,1.5,4.27,4.27,0,0,1-.61.29Z"/><path class="cls-4" d="M66.33,53.7a6,6,0,0,0-5.42,0c-1.5.87-1.5,2.27,0,3.13a6,6,0,0,0,5.42,0C67.83,56,67.83,54.57,66.33,53.7Z"/><g class="cls-28"><path d="M66.33,53.7a6,6,0,0,0-5.42,0c-1.5.87-1.5,2.27,0,3.13a6,6,0,0,0,5.42,0C67.83,56,67.83,54.57,66.33,53.7Z"/></g><path class="cls-4" d="M65.39,54.27a4,4,0,0,0-1.77-.37,4,4,0,0,0-1.76.37,1.2,1.2,0,0,0-.78,1,1.19,1.19,0,0,0,.78,1,4,4,0,0,0,1.76.38,4,4,0,0,0,1.77-.38,1.21,1.21,0,0,0,.78-1A1.22,1.22,0,0,0,65.39,54.27Z"/><g class="cls-29"><path d="M65.39,54.27a4,4,0,0,0-1.77-.37,4,4,0,0,0-1.76.37,1.2,1.2,0,0,0-.78,1,1.19,1.19,0,0,0,.78,1,4,4,0,0,0,1.76.38,4,4,0,0,0,1.77-.38,1.21,1.21,0,0,0,.78-1A1.22,1.22,0,0,0,65.39,54.27Z"/></g><path class="cls-4" d="M66.25,53.85a5.8,5.8,0,0,0-5.26,0,1.49,1.49,0,0,0,0,2.84,5.89,5.89,0,0,0,5.26,0,1.49,1.49,0,0,0,0-2.84Zm-.86,2.41a4,4,0,0,1-1.77.38,4,4,0,0,1-1.76-.38,1.19,1.19,0,0,1-.78-1,1.2,1.2,0,0,1,.78-1,4,4,0,0,1,1.76-.37,4,4,0,0,1,1.77.37,1.22,1.22,0,0,1,.78,1A1.21,1.21,0,0,1,65.39,56.26Z"/><g class="cls-28"><ellipse cx="63.62" cy="55.27" rx="2.41" ry="1.24"/></g><ellipse class="cls-4" cx="63.62" cy="55.27" rx="2.41" ry="1.24"/><g class="cls-30"><ellipse cx="63.62" cy="55.27" rx="2.41" ry="1.24"/></g><path class="cls-4" d="M65.33,54.72a4.22,4.22,0,0,0-3.41,0,1.23,1.23,0,0,0-.69.71,1.23,1.23,0,0,0,.69.71,4.14,4.14,0,0,0,3.41,0,1.21,1.21,0,0,0,.68-.71A1.21,1.21,0,0,0,65.33,54.72Z"/><g class="cls-31"><path d="M65.33,54.72a4.22,4.22,0,0,0-3.41,0,1.23,1.23,0,0,0-.69.71,1.23,1.23,0,0,0,.69.71,4.14,4.14,0,0,0,3.41,0,1.21,1.21,0,0,0,.68-.71A1.21,1.21,0,0,0,65.33,54.72Z"/></g><polygon class="cls-4" points="63.85 54.41 63.85 54.77 63.73 54.89 63.51 55.13 63.51 54.76 63.85 54.41"/><g class="cls-32"><polygon points="63.85 54.41 63.85 54.77 63.73 54.89 63.51 55.13 63.51 54.76 63.85 54.41"/></g><path class="cls-4" d="M63.51,54.76V55a1.8,1.8,0,0,1-.35.09H63L63,55c-.09-.05-.1-.13.06-.22A.56.56,0,0,1,63.51,54.76Z"/><g class="cls-33"><path d="M63.51,54.76V55a1.8,1.8,0,0,1-.35.09H63L63,55c-.09-.05-.1-.13.06-.22A.56.56,0,0,1,63.51,54.76Z"/></g><path class="cls-4" d="M65.11,55.76v.31l-.39.22-.29-.16a1.47,1.47,0,0,1-1.1,0v-.31l.17-.17-.17,0a1.08,1.08,0,0,1-.87-.1c-.17-.09-.25-.2-.25-.32V55l0-.13-.11-.07v-.3l.29.16a.45.45,0,0,0-.21.33h0c0,.11.08.21.25.31a1.27,1.27,0,0,0,1.09,0c.32-.11.55-.23.74-.12s.07.14-.05.22a.67.67,0,0,1-.55,0l-.36.36a1.17,1.17,0,0,0,.2.06,1.49,1.49,0,0,0,.9-.11l.29.17Z"/><g class="cls-34"><path d="M62.21,55h0c0,.11.08.21.25.31a1.27,1.27,0,0,0,1.09,0c.32-.11.55-.23.74-.12s.07.14-.05.22a.67.67,0,0,1-.55,0l-.36.36a1.17,1.17,0,0,0,.2.06,1.49,1.49,0,0,0,.9-.11l.29.17.39-.23v.31l-.39.22-.29-.16a1.47,1.47,0,0,1-1.1,0v-.31l.17-.17-.17,0a1.08,1.08,0,0,1-.87-.1c-.17-.09-.25-.2-.25-.32V55l0-.13"/></g><g class="cls-33"><path d="M62.13,54.53v.3l.11.07h0a.67.67,0,0,1,.18-.21Z"/></g><path class="cls-4" d="M65,55.56a.33.33,0,0,1,0,.15l-.19-.11a.37.37,0,0,0,.22-.3Z"/><g class="cls-32"><path d="M65,55.56a.33.33,0,0,1,0,.15l-.19-.11a.37.37,0,0,0,.22-.3Z"/></g><path class="cls-4" d="M65,55.73l-.22-.13a.38.38,0,0,0,.22-.34v0c0-.11-.09-.21-.25-.3h0a1,1,0,0,0-.51-.14H64.1l-.25,0-.12,0-.16,0-.06,0a1.8,1.8,0,0,1-.35.09H63L63,55c-.09-.05-.1-.13.06-.22a.56.56,0,0,1,.5-.05l.34-.35a1.45,1.45,0,0,0-1,.06l-.28-.17-.4.23.29.16a.45.45,0,0,0-.21.33h0c0,.11.08.21.25.31a1.27,1.27,0,0,0,1.09,0c.32-.11.55-.23.73-.12s.08.14,0,.21a.64.64,0,0,1-.55,0l-.36.36a1.17,1.17,0,0,0,.2.06l.35,0a1.85,1.85,0,0,0,.55-.14l.29.17.39-.23Z"/><polygon class="cls-4" points="64.43 55.82 64.43 56.13 64.72 56.29 64.72 55.98 64.43 55.82"/><g class="cls-33"><polygon points="64.43 55.82 64.43 56.13 64.72 56.29 64.72 55.98 64.43 55.82"/></g><polygon class="cls-13" points="62.13 54.53 62.52 54.3 62.81 54.47 62.53 54.35 62.13 54.53"/><path class="cls-13" d="M63,54.81a.56.56,0,0,1,.5-.05l.34-.35-.34.31A.54.54,0,0,0,63,54.81Z"/><path class="cls-13" d="M63.33,55.87a1.17,1.17,0,0,0,.2.06l.35,0a1.44,1.44,0,0,1-.5-.1l.31-.35Z"/><polygon class="cls-13" points="64.43 55.82 64.72 55.95 65.11 55.76 64.72 55.98 64.43 55.82"/><path class="cls-13" d="M61,53.9a6.41,6.41,0,0,1,2.6-.68,5.3,5.3,0,0,0-2.63.63,1.74,1.74,0,0,0-1,1.42A1.94,1.94,0,0,1,61,53.9Z"/><path class="cls-13" d="M63.33,57.48a5.7,5.7,0,0,0,3-.65A1.76,1.76,0,0,0,67.43,55a1.84,1.84,0,0,1-1.16,1.77A6.75,6.75,0,0,1,63.33,57.48Z"/><path class="cls-4" d="M66.87,54.18a2.34,2.34,0,0,0-.91-.84,6,6,0,0,0-5.43,0,2.41,2.41,0,0,0-.91.84h-.21V55h0a2,2,0,0,0,1.12,1.5,6,6,0,0,0,5.43,0A2,2,0,0,0,67.08,55h0v-.79Z"/><g class="cls-26"><path d="M66.87,54.18a2.34,2.34,0,0,0-.91-.84,6,6,0,0,0-5.43,0,2.41,2.41,0,0,0-.91.84h-.21V55h0a2,2,0,0,0,1.12,1.5,6,6,0,0,0,5.43,0A2,2,0,0,0,67.08,55h0v-.79Z"/></g><g class="cls-27"><path d="M63.25,52.69a5.5,5.5,0,0,0-2.72.65,2.41,2.41,0,0,0-.91.84h-.21V55h0a2,2,0,0,0,1.12,1.5,5.61,5.61,0,0,0,2.72.65Z"/></g><g class="cls-27"><path d="M61.15,53.05a3.5,3.5,0,0,0-.62.29,2.41,2.41,0,0,0-.91.84h-.21V55h0a2,2,0,0,0,1.12,1.5,5.88,5.88,0,0,0,.62.29Z"/></g><path class="cls-4" d="M65.34,53.05a3.2,3.2,0,0,1,.62.29,2.34,2.34,0,0,1,.91.84h.21V55h0A2,2,0,0,1,66,56.47a5.07,5.07,0,0,1-.62.29Z"/><path class="cls-4" d="M66,52.62a6,6,0,0,0-5.43,0c-1.49.86-1.49,2.26,0,3.13a6,6,0,0,0,5.43,0C67.46,54.88,67.46,53.48,66,52.62Z"/><g class="cls-28"><path d="M66,52.62a6,6,0,0,0-5.43,0c-1.49.86-1.49,2.26,0,3.13a6,6,0,0,0,5.43,0C67.46,54.88,67.46,53.48,66,52.62Z"/></g><path class="cls-4" d="M65,53.19a4.29,4.29,0,0,0-3.53,0,1,1,0,0,0,0,2,4.39,4.39,0,0,0,3.53,0,1,1,0,0,0,0-2Z"/><g class="cls-29"><path d="M65,53.19a4.29,4.29,0,0,0-3.53,0,1,1,0,0,0,0,2,4.39,4.39,0,0,0,3.53,0,1,1,0,0,0,0-2Z"/></g><path class="cls-4" d="M65.88,52.76a5.89,5.89,0,0,0-5.26,0,1.49,1.49,0,0,0,0,2.84,5.8,5.8,0,0,0,5.26,0,1.49,1.49,0,0,0,0-2.84ZM65,55.18a4.39,4.39,0,0,1-3.53,0,1,1,0,0,1,0-2,4.29,4.29,0,0,1,3.53,0,1,1,0,0,1,0,2Z"/><g class="cls-28"><ellipse cx="63.25" cy="54.18" rx="2.41" ry="1.24"/></g><ellipse class="cls-4" cx="63.25" cy="54.18" rx="2.41" ry="1.24"/><g class="cls-30"><ellipse cx="63.25" cy="54.18" rx="2.41" ry="1.24"/></g><path class="cls-4" d="M65,53.64a4.14,4.14,0,0,0-3.41,0,1.18,1.18,0,0,0-.68.71,1.18,1.18,0,0,0,.68.71,4.22,4.22,0,0,0,3.41,0,1.23,1.23,0,0,0,.69-.71A1.23,1.23,0,0,0,65,53.64Z"/><g class="cls-31"><path d="M65,53.64a4.14,4.14,0,0,0-3.41,0,1.18,1.18,0,0,0-.68.71,1.18,1.18,0,0,0,.68.71,4.22,4.22,0,0,0,3.41,0,1.23,1.23,0,0,0,.69-.71A1.23,1.23,0,0,0,65,53.64Z"/></g><polygon class="cls-4" points="63.48 53.33 63.48 53.68 63.35 53.81 63.13 54.04 63.13 53.67 63.48 53.33"/><g class="cls-32"><polygon points="63.48 53.33 63.48 53.68 63.35 53.81 63.13 54.04 63.13 53.67 63.48 53.33"/></g><path class="cls-4" d="M63.13,53.67v.21a1.7,1.7,0,0,1-.34.1.24.24,0,0,1-.15,0,.11.11,0,0,1-.07,0c-.08,0-.1-.12.06-.21A.57.57,0,0,1,63.13,53.67Z"/><g class="cls-33"><path d="M63.13,53.67v.21a1.7,1.7,0,0,1-.34.1.24.24,0,0,1-.15,0,.11.11,0,0,1-.07,0c-.08,0-.1-.12.06-.21A.57.57,0,0,1,63.13,53.67Z"/></g><path class="cls-4" d="M64.73,54.68V55l-.38.23L64.06,55a1.45,1.45,0,0,1-1.11.05v-.31l.18-.17-.18,0a1.14,1.14,0,0,1-.86-.1c-.18-.1-.26-.21-.26-.32v-.3l0-.13-.11-.06v-.31l.29.17a.46.46,0,0,0-.22.33h0a.42.42,0,0,0,.26.31,1.27,1.27,0,0,0,1.09,0c.32-.1.55-.22.73-.12s.08.15,0,.22a.61.61,0,0,1-.54,0l-.37.36.2.06a1.59,1.59,0,0,0,.91-.1l.29.16Z"/><g class="cls-34"><path d="M61.83,53.94h0a.42.42,0,0,0,.26.31,1.27,1.27,0,0,0,1.09,0c.32-.1.55-.22.73-.12s.08.15,0,.22a.61.61,0,0,1-.54,0l-.37.36.2.06a1.59,1.59,0,0,0,.91-.1l.29.16.38-.22V55l-.38.23L64.06,55a1.45,1.45,0,0,1-1.11.05v-.31l.18-.17-.18,0a1.14,1.14,0,0,1-.86-.1c-.18-.1-.26-.21-.26-.32v-.3l0-.13"/></g><g class="cls-33"><path d="M61.76,53.44v.31l.11.06h0a.54.54,0,0,1,.18-.2Z"/></g><path class="cls-4" d="M64.67,54.48a.32.32,0,0,1,0,.14l-.19-.11a.39.39,0,0,0,.22-.29Z"/><g class="cls-32"><path d="M64.67,54.48a.32.32,0,0,1,0,.14l-.19-.11a.39.39,0,0,0,.22-.29Z"/></g><path class="cls-4" d="M64.67,54.64l-.22-.13a.38.38,0,0,0,.22-.34v0a.43.43,0,0,0-.25-.3h0a1,1,0,0,0-.52-.13h-.18l-.25.05-.12,0-.16,0-.06,0a1.7,1.7,0,0,1-.34.1.24.24,0,0,1-.15,0,.11.11,0,0,1-.07,0c-.08,0-.1-.12.06-.22a.6.6,0,0,1,.5,0l.35-.34a1.5,1.5,0,0,0-1,.05l-.29-.16-.39.22.29.17a.46.46,0,0,0-.22.33h0a.45.45,0,0,0,.26.32,1.3,1.3,0,0,0,1.09,0c.32-.1.55-.22.73-.12s.08.15,0,.22a.61.61,0,0,1-.54,0l-.37.36.2.06a1.1,1.1,0,0,0,.36,0,1.59,1.59,0,0,0,.55-.13l.29.16.38-.22Z"/><polygon class="cls-4" points="64.06 54.73 64.06 55.04 64.34 55.21 64.34 54.9 64.06 54.73"/><g class="cls-33"><polygon points="64.06 54.73 64.06 55.04 64.34 55.21 64.34 54.9 64.06 54.73"/></g><polygon class="cls-13" points="61.76 53.44 62.15 53.22 62.44 53.38 62.15 53.27 61.76 53.44"/><path class="cls-13" d="M62.63,53.72a.6.6,0,0,1,.5,0l.35-.34-.35.31A.52.52,0,0,0,62.63,53.72Z"/><path class="cls-13" d="M63,54.78l.2.06a1.1,1.1,0,0,0,.36,0,1.19,1.19,0,0,1-.5-.1l.31-.35Z"/><polygon class="cls-13" points="64.06 54.73 64.34 54.86 64.73 54.68 64.34 54.9 64.06 54.73"/><path class="cls-13" d="M60.65,52.81a6.47,6.47,0,0,1,2.6-.67,5.38,5.38,0,0,0-2.63.62,1.75,1.75,0,0,0-1,1.42A1.94,1.94,0,0,1,60.65,52.81Z"/><path class="cls-13" d="M63,56.39a5.73,5.73,0,0,0,3-.64,1.79,1.79,0,0,0,1.1-1.81,1.84,1.84,0,0,1-1.17,1.77A6.64,6.64,0,0,1,63,56.39Z"/></g><g id="Coins-2" data-name="Coins"><path class="cls-4" d="M60.45,59.69a2.51,2.51,0,0,0-.91-.85,6,6,0,0,0-5.43,0,2.43,2.43,0,0,0-.91.85H53v.78h0A1.93,1.93,0,0,0,54.11,62a6,6,0,0,0,5.43,0,1.93,1.93,0,0,0,1.12-1.5h0v-.78Z"/><g class="cls-26"><path d="M60.45,59.69a2.51,2.51,0,0,0-.91-.85,6,6,0,0,0-5.43,0,2.43,2.43,0,0,0-.91.85H53v.78h0A1.93,1.93,0,0,0,54.11,62a6,6,0,0,0,5.43,0,1.93,1.93,0,0,0,1.12-1.5h0v-.78Z"/></g><g class="cls-27"><path d="M56.82,58.19a5.57,5.57,0,0,0-2.71.65,2.43,2.43,0,0,0-.91.85H53v.78h0A1.93,1.93,0,0,0,54.11,62a5.46,5.46,0,0,0,2.71.65Z"/></g><g class="cls-27"><path d="M54.73,58.55a3.92,3.92,0,0,0-.62.29,2.43,2.43,0,0,0-.91.85H53v.78h0A1.93,1.93,0,0,0,54.11,62a3.92,3.92,0,0,0,.62.29Z"/></g><path class="cls-4" d="M58.92,58.55a4.39,4.39,0,0,1,.62.29,2.51,2.51,0,0,1,.91.85h.21v.78h0A1.93,1.93,0,0,1,59.54,62a4.39,4.39,0,0,1-.62.29Z"/><path class="cls-4" d="M59.54,58.12a6,6,0,0,0-5.43,0c-1.5.87-1.5,2.27,0,3.13a6,6,0,0,0,5.43,0C61,60.39,61,59,59.54,58.12Z"/><g class="cls-28"><path d="M59.54,58.12a6,6,0,0,0-5.43,0c-1.5.87-1.5,2.27,0,3.13a6,6,0,0,0,5.43,0C61,60.39,61,59,59.54,58.12Z"/></g><path class="cls-4" d="M58.59,58.7a4.29,4.29,0,0,0-3.53,0,1.19,1.19,0,0,0-.78,1,1.21,1.21,0,0,0,.78,1,4.29,4.29,0,0,0,3.53,0,1.21,1.21,0,0,0,.78-1A1.19,1.19,0,0,0,58.59,58.7Z"/><g class="cls-29"><path d="M58.59,58.7a4.29,4.29,0,0,0-3.53,0,1.19,1.19,0,0,0-.78,1,1.21,1.21,0,0,0,.78,1,4.29,4.29,0,0,0,3.53,0,1.21,1.21,0,0,0,.78-1A1.19,1.19,0,0,0,58.59,58.7Z"/></g><path class="cls-4" d="M59.45,58.27a5.78,5.78,0,0,0-5.25,0,1.49,1.49,0,0,0,0,2.84,5.78,5.78,0,0,0,5.25,0,1.49,1.49,0,0,0,0-2.84Zm-.86,2.41a4.29,4.29,0,0,1-3.53,0,1.21,1.21,0,0,1-.78-1,1.19,1.19,0,0,1,.78-1,4.29,4.29,0,0,1,3.53,0,1.19,1.19,0,0,1,.78,1A1.21,1.21,0,0,1,58.59,60.68Z"/><g class="cls-28"><path d="M58.53,60.56c.94-.48.94-1.26,0-1.75a4.22,4.22,0,0,0-3.41,0c-.94.49-.94,1.27,0,1.75A4.14,4.14,0,0,0,58.53,60.56Z"/></g><path class="cls-4" d="M58.53,60.56c.94-.48.94-1.26,0-1.75a4.22,4.22,0,0,0-3.41,0c-.94.49-.94,1.27,0,1.75A4.14,4.14,0,0,0,58.53,60.56Z"/><g class="cls-30"><path d="M58.53,60.56c.94-.48.94-1.26,0-1.75a4.22,4.22,0,0,0-3.41,0c-.94.49-.94,1.27,0,1.75A4.14,4.14,0,0,0,58.53,60.56Z"/></g><path class="cls-4" d="M58.53,59.14a4.22,4.22,0,0,0-3.41,0,1.23,1.23,0,0,0-.69.71,1.23,1.23,0,0,0,.69.71,4.14,4.14,0,0,0,3.41,0,1.18,1.18,0,0,0,.68-.71A1.18,1.18,0,0,0,58.53,59.14Z"/><g class="cls-31"><path d="M58.53,59.14a4.22,4.22,0,0,0-3.41,0,1.23,1.23,0,0,0-.69.71,1.23,1.23,0,0,0,.69.71,4.14,4.14,0,0,0,3.41,0,1.18,1.18,0,0,0,.68-.71A1.18,1.18,0,0,0,58.53,59.14Z"/></g><polygon class="cls-4" points="57.05 58.83 57.05 59.19 56.93 59.31 56.71 59.55 56.71 59.18 57.05 58.83"/><g class="cls-32"><polygon points="57.05 58.83 57.05 59.19 56.93 59.31 56.71 59.55 56.71 59.18 57.05 58.83"/></g><path class="cls-4" d="M56.71,59.18v.21l-.35.1h-.14l-.07,0c-.09-.05-.1-.13.06-.22A.56.56,0,0,1,56.71,59.18Z"/><g class="cls-33"><path d="M56.71,59.18v.21l-.35.1h-.14l-.07,0c-.09-.05-.1-.13.06-.22A.56.56,0,0,1,56.71,59.18Z"/></g><path class="cls-4" d="M58.31,60.18v.31l-.39.22-.28-.16a1.5,1.5,0,0,1-1.11.05v-.31l.17-.17-.17.05a1.14,1.14,0,0,1-.86-.1c-.18-.1-.26-.21-.26-.33v-.29l0-.13-.1-.06V59l.28.17a.43.43,0,0,0-.21.32h0c0,.11.09.21.26.31a1.27,1.27,0,0,0,1.09,0c.31-.11.54-.23.73-.12s.08.14-.05.22a.67.67,0,0,1-.55,0l-.36.36a.76.76,0,0,0,.2.06,1.52,1.52,0,0,0,.91-.11l.28.17Z"/><g class="cls-34"><path d="M55.41,59.44h0c0,.11.09.21.26.31a1.27,1.27,0,0,0,1.09,0c.31-.11.54-.23.73-.12s.08.14-.05.22a.67.67,0,0,1-.55,0l-.36.36a.76.76,0,0,0,.2.06,1.52,1.52,0,0,0,.91-.11l.28.17.39-.23v.31l-.39.22-.28-.16a1.5,1.5,0,0,1-1.11.05v-.31l.17-.17-.17.05a1.14,1.14,0,0,1-.86-.1c-.18-.1-.26-.21-.26-.33v-.29l0-.13"/></g><g class="cls-33"><path d="M55.34,59v.31l.1.06h0a.67.67,0,0,1,.18-.2Z"/></g><path class="cls-4" d="M58.25,60a.57.57,0,0,1,0,.15L58,60a.37.37,0,0,0,.22-.3C58.24,59.81,58.25,60,58.25,60Z"/><g class="cls-32"><path d="M58.25,60a.57.57,0,0,1,0,.15L58,60a.37.37,0,0,0,.22-.3C58.24,59.81,58.25,60,58.25,60Z"/></g><path class="cls-4" d="M58.24,60.15,58,60a.38.38,0,0,0,.22-.34v0a.4.4,0,0,0-.24-.3h0a1,1,0,0,0-.52-.14H57.3l-.25.05-.12,0-.16.06-.06,0-.34.1h-.15l-.07,0c-.09-.05-.1-.12.06-.22a.56.56,0,0,1,.5,0l.34-.35a1.5,1.5,0,0,0-1,.06l-.28-.16-.39.22.28.17a.43.43,0,0,0-.21.32h0c0,.11.09.21.26.31a1.27,1.27,0,0,0,1.09,0c.31-.11.54-.23.73-.12s.08.14-.05.22a.67.67,0,0,1-.55,0l-.36.36a.76.76,0,0,0,.2.06,1.42,1.42,0,0,0,.35,0,1.65,1.65,0,0,0,.56-.14l.28.17.39-.23Z"/><polygon class="cls-4" points="57.64 60.24 57.64 60.55 57.92 60.71 57.92 60.41 57.64 60.24"/><g class="cls-33"><polygon points="57.64 60.24 57.64 60.55 57.92 60.71 57.92 60.41 57.64 60.24"/></g><polygon class="cls-13" points="55.34 58.95 55.73 58.73 56.01 58.89 55.73 58.77 55.34 58.95"/><path class="cls-13" d="M56.21,59.23a.56.56,0,0,1,.5,0l.34-.35-.34.31A.54.54,0,0,0,56.21,59.23Z"/><path class="cls-13" d="M56.53,60.29a.76.76,0,0,0,.2.06,1.42,1.42,0,0,0,.35,0,1.36,1.36,0,0,1-.49-.1l.3-.35Z"/><polygon class="cls-13" points="57.64 60.24 57.92 60.37 58.31 60.18 57.92 60.41 57.64 60.24"/><path class="cls-13" d="M54.23,58.32a6.34,6.34,0,0,1,2.59-.68,5.26,5.26,0,0,0-2.62.63,1.73,1.73,0,0,0-1,1.42S53.19,59,54.23,58.32Z"/><path class="cls-13" d="M56.53,61.9a5.73,5.73,0,0,0,3-.65,1.79,1.79,0,0,0,1.1-1.81,1.85,1.85,0,0,1-1.17,1.78A6.64,6.64,0,0,1,56.53,61.9Z"/><path class="cls-4" d="M60.68,58.61a2.47,2.47,0,0,0-.92-.85,6,6,0,0,0-5.42,0,2.55,2.55,0,0,0-.92.85h-.2v.79h0a2,2,0,0,0,1.12,1.5,6,6,0,0,0,5.42,0,2,2,0,0,0,1.13-1.5h0v-.79Z"/><g class="cls-26"><path d="M60.68,58.61a2.47,2.47,0,0,0-.92-.85,6,6,0,0,0-5.42,0,2.55,2.55,0,0,0-.92.85h-.2v.79h0a2,2,0,0,0,1.12,1.5,6,6,0,0,0,5.42,0,2,2,0,0,0,1.13-1.5h0v-.79Z"/></g><g class="cls-27"><path d="M57.05,57.12a5.57,5.57,0,0,0-2.71.64,2.55,2.55,0,0,0-.92.85h-.2v.79h0a2,2,0,0,0,1.12,1.5,5.57,5.57,0,0,0,2.71.64Z"/></g><g class="cls-27"><path d="M55,57.48a3.89,3.89,0,0,0-.62.28,2.55,2.55,0,0,0-.92.85h-.2v.79h0a2,2,0,0,0,1.12,1.5,5.07,5.07,0,0,0,.62.29Z"/></g><path class="cls-4" d="M59.15,57.48a3.78,3.78,0,0,1,.61.28,2.47,2.47,0,0,1,.92.85h.21v.79h0a2,2,0,0,1-1.13,1.5,4.92,4.92,0,0,1-.61.29Z"/><path class="cls-4" d="M59.76,57.05a6,6,0,0,0-5.42,0c-1.5.86-1.5,2.26,0,3.13a6,6,0,0,0,5.42,0C61.26,59.31,61.26,57.91,59.76,57.05Z"/><g class="cls-28"><path d="M59.76,57.05a6,6,0,0,0-5.42,0c-1.5.86-1.5,2.26,0,3.13a6,6,0,0,0,5.42,0C61.26,59.31,61.26,57.91,59.76,57.05Z"/></g><path class="cls-4" d="M58.82,57.62a4,4,0,0,0-1.77-.38,4,4,0,0,0-1.76.38,1.19,1.19,0,0,0-.78,1,1.16,1.16,0,0,0,.78,1,3.84,3.84,0,0,0,1.76.38,3.88,3.88,0,0,0,1.77-.38,1.18,1.18,0,0,0,.78-1A1.21,1.21,0,0,0,58.82,57.62Z"/><g class="cls-29"><path d="M58.82,57.62a4,4,0,0,0-1.77-.38,4,4,0,0,0-1.76.38,1.19,1.19,0,0,0-.78,1,1.16,1.16,0,0,0,.78,1,3.84,3.84,0,0,0,1.76.38,3.88,3.88,0,0,0,1.77-.38,1.18,1.18,0,0,0,.78-1A1.21,1.21,0,0,0,58.82,57.62Z"/></g><path class="cls-4" d="M59.68,57.19a5.8,5.8,0,0,0-5.26,0,1.49,1.49,0,0,0,0,2.84,5.8,5.8,0,0,0,5.26,0,1.49,1.49,0,0,0,0-2.84Zm-.86,2.41a3.88,3.88,0,0,1-1.77.38,3.84,3.84,0,0,1-1.76-.38,1.16,1.16,0,0,1-.78-1,1.19,1.19,0,0,1,.78-1,4,4,0,0,1,1.76-.38,4,4,0,0,1,1.77.38,1.21,1.21,0,0,1,.78,1A1.18,1.18,0,0,1,58.82,59.6Z"/><g class="cls-28"><path d="M58.76,59.49c.94-.49.94-1.27,0-1.75a4.14,4.14,0,0,0-3.41,0c-.94.48-.94,1.26,0,1.75A4.22,4.22,0,0,0,58.76,59.49Z"/></g><path class="cls-4" d="M58.76,59.49c.94-.49.94-1.27,0-1.75a4.14,4.14,0,0,0-3.41,0c-.94.48-.94,1.26,0,1.75A4.22,4.22,0,0,0,58.76,59.49Z"/><g class="cls-30"><path d="M58.76,59.49c.94-.49.94-1.27,0-1.75a4.14,4.14,0,0,0-3.41,0c-.94.48-.94,1.26,0,1.75A4.22,4.22,0,0,0,58.76,59.49Z"/></g><path class="cls-4" d="M58.76,58.06a4.22,4.22,0,0,0-3.41,0,1.25,1.25,0,0,0-.69.72,1.23,1.23,0,0,0,.69.71,4.22,4.22,0,0,0,3.41,0,1.18,1.18,0,0,0,.68-.71A1.2,1.2,0,0,0,58.76,58.06Z"/><g class="cls-31"><path d="M58.76,58.06a4.22,4.22,0,0,0-3.41,0,1.25,1.25,0,0,0-.69.72,1.23,1.23,0,0,0,.69.71,4.22,4.22,0,0,0,3.41,0,1.18,1.18,0,0,0,.68-.71A1.2,1.2,0,0,0,58.76,58.06Z"/></g><polygon class="cls-4" points="57.28 57.76 57.28 58.11 57.16 58.24 56.94 58.47 56.94 58.1 57.28 57.76"/><g class="cls-32"><polygon points="57.28 57.76 57.28 58.11 57.16 58.24 56.94 58.47 56.94 58.1 57.28 57.76"/></g><path class="cls-4" d="M56.94,58.1v.21a2,2,0,0,1-.35.1.22.22,0,0,1-.14,0,.09.09,0,0,1-.07,0c-.09,0-.1-.12.06-.22A.56.56,0,0,1,56.94,58.1Z"/><g class="cls-33"><path d="M56.94,58.1v.21a2,2,0,0,1-.35.1.22.22,0,0,1-.14,0,.09.09,0,0,1-.07,0c-.09,0-.1-.12.06-.22A.56.56,0,0,1,56.94,58.1Z"/></g><path class="cls-4" d="M58.54,59.11v.3l-.39.23-.28-.17a1.45,1.45,0,0,1-1.11.05v-.31l.17-.17-.17.05a1.17,1.17,0,0,1-.87-.1c-.17-.1-.25-.21-.25-.32v-.3l0-.13-.1-.06v-.31l.28.17a.45.45,0,0,0-.21.33h0c0,.11.09.22.25.31a1.27,1.27,0,0,0,1.09,0c.32-.1.55-.22.74-.12s.08.15,0,.22a.63.63,0,0,1-.55,0l-.36.36a.76.76,0,0,0,.2.06,1.53,1.53,0,0,0,.91-.11l.28.17Z"/><g class="cls-34"><path d="M55.64,58.37h0c0,.11.09.22.25.31a1.27,1.27,0,0,0,1.09,0c.32-.1.55-.22.74-.12s.08.15,0,.22a.63.63,0,0,1-.55,0l-.36.36a.76.76,0,0,0,.2.06,1.53,1.53,0,0,0,.91-.11l.28.17.39-.22v.3l-.39.23-.28-.17a1.45,1.45,0,0,1-1.11.05v-.31l.17-.17-.17.05a1.17,1.17,0,0,1-.87-.1c-.17-.1-.25-.21-.25-.32v-.3l0-.13"/></g><g class="cls-33"><path d="M55.57,57.87v.31l.1.06h0a.81.81,0,0,1,.18-.2Z"/></g><path class="cls-4" d="M58.47,58.91a.59.59,0,0,1,0,.14l-.2-.11a.37.37,0,0,0,.22-.29Z"/><g class="cls-32"><path d="M58.47,58.91a.59.59,0,0,1,0,.14l-.2-.11a.37.37,0,0,0,.22-.29Z"/></g><path class="cls-4" d="M58.47,59.07l-.22-.13a.38.38,0,0,0,.22-.34v0a.43.43,0,0,0-.25-.3h0a1,1,0,0,0-.51-.13h-.18l-.25.05-.12,0-.16,0-.06,0a2,2,0,0,1-.35.1.22.22,0,0,1-.14,0,.09.09,0,0,1-.07,0c-.09,0-.1-.12.06-.22a.56.56,0,0,1,.5,0l.34-.34a1.5,1.5,0,0,0-1,.05L56,57.65l-.39.22.28.17a.45.45,0,0,0-.21.33h0c0,.11.08.22.25.31a1.29,1.29,0,0,0,1.1,0c.31-.1.54-.23.73-.12s.08.15,0,.22a.63.63,0,0,1-.55,0l-.36.36a.76.76,0,0,0,.2.06,1.06,1.06,0,0,0,.35,0,1.59,1.59,0,0,0,.55-.14l.29.17.39-.22Z"/><polygon class="cls-4" points="57.87 59.16 57.87 59.47 58.15 59.63 58.15 59.33 57.87 59.16"/><g class="cls-33"><polygon points="57.87 59.16 57.87 59.47 58.15 59.63 58.15 59.33 57.87 59.16"/></g><polygon class="cls-13" points="55.57 57.87 55.96 57.65 56.24 57.81 55.96 57.69 55.57 57.87"/><path class="cls-13" d="M56.44,58.15a.56.56,0,0,1,.5,0l.34-.34-.34.31A.52.52,0,0,0,56.44,58.15Z"/><path class="cls-13" d="M56.76,59.21a.76.76,0,0,0,.2.06,1.06,1.06,0,0,0,.35,0,1.21,1.21,0,0,1-.5-.1l.31-.35Z"/><polygon class="cls-13" points="57.87 59.16 58.15 59.29 58.54 59.11 58.15 59.33 57.87 59.16"/><path class="cls-13" d="M54.45,57.24a6.59,6.59,0,0,1,2.6-.68,5.41,5.41,0,0,0-2.63.63,1.75,1.75,0,0,0-1,1.42A1.94,1.94,0,0,1,54.45,57.24Z"/><path class="cls-13" d="M56.76,60.82a5.69,5.69,0,0,0,3-.64c.86-.5,1.23-1.17,1.1-1.81a1.84,1.84,0,0,1-1.16,1.77A6.64,6.64,0,0,1,56.76,60.82Z"/></g><path id="Shadow-11" data-name="Shadow" class="cls-21" d="M35.21,39.79V27.37A4.2,4.2,0,0,1,31.31,26l0,0h0a.79.79,0,0,0-.14-.13h0c-.16-.08-.31,0-.41.23-1.49,3.35-4.52,6.7-6.5,7.49a1.17,1.17,0,0,0-.39.28.82.82,0,0,0-.24.55,19.67,19.67,0,0,0,3.08,10.65l8.27-4.78A.61.61,0,0,0,35.21,39.79Z"/><g id="Shield"><path class="cls-4" d="M41.06,27.77c0-.18,0-.28-.1-.33h0L40.27,27h0c-.08,0-.2,0-.35.1a5.06,5.06,0,0,1-5,.54,3.58,3.58,0,0,1-.55-.55l0,0h0a.79.79,0,0,0-.14-.13l-.7-.43,0,0c-.16-.08-.31,0-.42.23-1.48,3.36-4.52,6.7-6.49,7.5a1.05,1.05,0,0,0-.39.27A.79.79,0,0,0,26,35C25.82,39.4,28,46.47,32.44,49a6.87,6.87,0,0,0,.81.51C39.72,43.24,40.89,33,41.06,27.77Z"/><path class="cls-8" d="M41,27.43c-.08,0-.2,0-.35.1a4.86,4.86,0,0,1-5.65.11,5.06,5.06,0,0,0,5-.54c.15-.11.27-.14.35-.1h0Z"/><path class="cls-4" d="M34.2,26.92c-.16-.09-.31,0-.41.22-1.49,3.36-4.52,6.7-6.5,7.5a1.14,1.14,0,0,0-.39.27,1.07,1.07,0,0,0-.15.22l-.69-.43a1.07,1.07,0,0,1,.15-.22,1.05,1.05,0,0,1,.39-.27c2-.8,5-4.14,6.49-7.5.11-.23.26-.31.42-.23l0,0,.31.19Z"/><path class="cls-7" d="M32.43,49C28,46.46,25.82,39.4,26,35a.74.74,0,0,1,.09-.33l.69.43a.73.73,0,0,0-.08.33C26.52,39.6,28.44,46.15,32.43,49Z"/><path class="cls-4" d="M41.06,27.77c-.17,5.18-1.34,15.47-7.81,21.7-4.54-2.43-6.74-9.59-6.58-14a.85.85,0,0,1,.23-.55,1.3,1.3,0,0,1,.39-.27c2-.79,5-4.14,6.5-7.5.1-.23.25-.31.41-.22h0a.79.79,0,0,1,.14.13h0l0,0c1.39,1.74,4.25,1.83,6.2.44.15-.11.27-.14.35-.1h0C41,27.49,41.07,27.59,41.06,27.77Z"/><path class="cls-21" d="M34.2,26.92c-.16-.09-.31,0-.41.22-1.49,3.36-4.52,6.71-6.5,7.5a1.3,1.3,0,0,0-.39.27.85.85,0,0,0-.23.55c-.16,4.42,2,11.58,6.58,14A48.07,48.07,0,0,0,34.2,26.92Z"/><path class="cls-14" d="M31.49,41.78a23.21,23.21,0,0,0,.07-2.64L34,37.8a22.59,22.59,0,0,0,0-2.72l2.27-1.19a25.74,25.74,0,0,1,.14,2.63h0l2.22-1.14a19,19,0,0,1-.38,2.76l-2,1c-.15,1.05-.27,1.69-.48,2.68-.87.45-1.29.68-2.15,1.17a19.8,19.8,0,0,0,.4-2.63C33.11,40.89,32.38,41.29,31.49,41.78Z"/><path class="cls-24" d="M34,37.8l-2.44,1.34a23.21,23.21,0,0,1-.07,2.64c.89-.49,1.62-.89,2.5-1.4a19.8,19.8,0,0,1-.4,2.63l1.14-.64a50.05,50.05,0,0,0,.35-7.87l-1.1.58A22.59,22.59,0,0,1,34,37.8Z"/><path class="cls-8" d="M36.48,29.33a5.24,5.24,0,0,0,3.75-.57s-.13,9.16-3.48,15a27.54,27.54,0,0,0,1.51-8.95C38.46,31.41,37.63,30.21,36.48,29.33Z"/></g><path class="cls-9" d="M78.2,27.52V25.73h5.13V28h-.55Zm6.28,15.75,4.58.45v1.79H78.2V43.72l4.58-.45Zm-4.15-8.13c0-3.13,0-6.28-.09-9.41h6.18c-.09,3.07-.09,6.22-.09,9.41V37c0,2.24,0,5.4.09,8.52H80.24c.09-3.06.09-6.22.09-9.4Zm6.55,2.91H83.33V36.23h3.43c2.27,0,3.55-1.82,3.55-4.55s-1.43-4.06-3.67-4.06H83.33V25.73h3.15c6.83,0,9.32,2.34,9.32,6S93.61,38.05,86.88,38.05Z"/><path class="cls-9" d="M96.77,27.52V25.73h10v1.79l-4.61.46h-1Zm5.37,15.75,4.61.45v1.79h-10V43.72l4.37-.45Zm-3.31-8.13c0-3.13,0-6.28-.09-9.41h6.19c-.09,3.07-.09,6.22-.09,9.41v.94c0,3.15,0,6.31.09,9.43H98.74c.09-3.06.09-6.22.09-9.4Zm3,1.15V34.38h11.1v1.91ZM108,27.52V25.73h10v1.79l-4.52.46h-.94Zm5.46,15.75,4.52.45v1.79H108V43.72l4.52-.45Zm-3.55-8.13c0-3.13,0-6.28-.09-9.41H116c-.09,3.07-.09,6.22-.09,9.41v1c0,3.12,0,6.28.09,9.4h-6.18c.09-3.06.09-6.22.09-9.43Z"/><path class="cls-9" d="M119.16,43.72l3.16-.45h.51l2.7.45v1.79h-6.37Zm8.47-18h3.64L138,45.51h-6.1L127.11,30l1.31-2.12-5.65,17.68h-1.94Zm-3.16,12.41h8.19l.76,1.91H124Zm4.76,5.67,3.28-.45h2.58l3.94.45v1.7h-9.8Z"/><path class="cls-9" d="M140.34,27.52V25.73h5.13V28h-.55ZM146,43.27l4.58.45v1.79H140.34V43.72l4.58-.45Zm-3.55-8.13c0-3.13,0-6.28-.09-9.41h6.07c-.09,3.07-.09,6.22-.09,9.41v.94c0,3.15,0,6.31.09,9.43h-6.07c.09-3.06.09-6.22.09-9.4Zm3.07-.52H149c2.91,0,3.57-1.76,3.57-3.52,0-2.39-1.3-3.48-3.51-3.48h-3.61V25.73h5.3c4.83,0,7.44,1.86,7.44,4.92,0,2.21-1.61,4.61-7.53,4.88V35.2c5.8.12,6.95,1.91,7.37,5.37l.55,4.55-3.09-1.94,5.09.54v1.79a13,13,0,0,1-3.76.49c-2.85,0-4.64-.85-4.91-3.58l-.31-3c-.18-1.88-.79-3-2.33-3h-3.76Z"/><path class="cls-9" d="M161.21,43.72l3.67-.45h1l3,.45v1.79h-7.65Zm.37-18H166L166.1,28h-.55l-4-.46Zm2.64,0h1.91l.21,11.08v8.7h-2.12Zm.24,0h6.1l4.7,13.44h-1l4.43-13.44h2.15L174.2,45.51h-2.67Zm12.47,18,4-.45h1.7l4.58.45v1.79H176.93ZM179.05,37l.15-11.26h6c-.09,3.13-.09,6.28-.09,9.41v1c0,3.18,0,6.34.09,9.4H179C179.05,42.39,179,39.23,179.05,37Zm3-11.26h5v1.79L182.6,28h-.55Z"/><path class="cls-9" d="M188.31,43.72l3.15-.45H192l2.7.45v1.79h-6.37Zm8.46-18h3.64l6.77,19.78h-6.1L196.26,30l1.3-2.12-5.64,17.68H190Zm-3.15,12.41h8.19l.76,1.91H193.1Zm4.76,5.67,3.28-.45h2.57l4,.45v1.7h-9.8Z"/><path class="cls-9" d="M224.59,42.66v1.52l-2.09.45,1.12-4.85h2.49L226,44.54a13.12,13.12,0,0,1-6.46,1.58c-5.74,0-10.65-3.06-10.65-10.5,0-7.61,5.34-10.49,11-10.49a11.67,11.67,0,0,1,6,1.52l.12,4.82h-2.49l-1.15-4.92,2.09.49v1.61a5.34,5.34,0,0,0-3.7-1.73c-2.91,0-5.58,2.42-5.58,8.73s2.64,8.65,5.46,8.65A6.85,6.85,0,0,0,224.59,42.66Z"/><path class="cls-9" d="M226.93,27.52V25.73h10.29v1.79l-3.83.46h-1.6Zm7,11.59-6.52-13.38h6.85l4.43,10-.91.18,4.64-10.2h2.25L238,39.11ZM237,43.27l4.71.45v1.79h-10.9V43.72l4.59-.45ZM233.27,36h6c0,5,0,6.67.09,9.49h-6.19C233.27,42.75,233.27,41.08,233.27,36Zm9-8-2.67-.46V25.73h6v1.79L243,28Z"/><path class="cls-9" d="M81.23,60.88c0-.73-.31-1.07-1.07-1.43l-.67-.32c-1.88-.89-2.9-1.8-2.9-3.53s1.47-3,3.92-3a6,6,0,0,1,3,.76l-.13,2.19H81.81l-.35-2.29,1.32.41v.75a4,4,0,0,0-2.18-.86,1.3,1.3,0,0,0-1.37,1.24c0,.75.43,1.11,1.25,1.51l.75.36C83.15,57.6,84,58.42,84,60c0,1.79-1.32,3.12-4.11,3.12a6.88,6.88,0,0,1-3.43-.79L76.5,60h1.61l.39,2.5-1.24-.35v-.73a5.56,5.56,0,0,0,2.59.71A1.25,1.25,0,0,0,81.23,60.88Z"/><path class="cls-9" d="M84,61.92l1.57-.23h.26l1.35.23v.9H84Zm4.23-9h1.82l3.38,9.89h-3L88,55,88.65,54l-2.82,8.85h-1Zm-1.58,6.2h4.1l.38,1H86.42ZM89.06,62l1.64-.23H92L94,62v.85h-4.9Z"/><path class="cls-9" d="M95,54.05l-2.29-.23v-.89H98v.82l-2.29.3Zm-1.87-1.12H96.4l2.37,7.31-.48.45,2.62-7.76h1l-3.48,9.89H96.66Zm7.91,1.12-1.66-.3v-.82h3.2v.89l-1.35.23Z"/><path class="cls-9" d="M103.05,53.82v-.89h2.56v1.12h-.27Zm2.56,7.87v1.13h-2.56v-.9l2.29-.23Zm-1.5-4.06c0-1.56,0-3.14,0-4.7h3.09c0,1.53,0,3.11,0,4.7v.47c0,1.58,0,3.15,0,4.72h-3.09c0-1.54,0-3.11,0-4.71Zm5-4.7,1.26.89h-4.77v-.89h5.27l.1,2.58h-1.42Zm-.2,5.24h-3.31v-1h3.31Zm2.37,2.07-.11,2.58h-5.57v-.88h5.07l-1.26.88.44-2.58Zm-2.83-2.73.23-1.4h1v3.14h-1l-.23-1.47Z"/><path class="cls-9" d="M114.49,53.82v-.89h5.14v.89l-1.91.23h-.8Zm3.5,5.8-3.26-6.69h3.43l2.21,5-.45.09,2.32-5.09h1.12L120,59.62Zm1.55,2.07,2.35.23v.9h-5.45v-.9l2.3-.23Zm-1.88-3.62h3c0,2.5,0,3.34,0,4.75h-3.1C117.66,61.44,117.66,60.6,117.66,58.07Zm4.5-4-1.33-.23v-.89h3v.89l-1.29.23Z"/><path class="cls-9" d="M133.42,57.87c0,3.57-2.32,5.25-4.89,5.25s-4.88-1.68-4.88-5.25,2.34-5.25,4.88-5.25S133.42,54.31,133.42,57.87Zm-4.89,4.32c1.29,0,1.78-1.71,1.78-4.32s-.49-4.34-1.78-4.34-1.77,1.75-1.77,4.34S127.25,62.19,128.53,62.19Z"/><path class="cls-9" d="M133.92,53.82v-.89h5.22v.89l-2.37.23h-.48Zm6.08,7.8c1.22,0,2-.88,2-3V52.93h1.08v5.53c0,3.23-1.47,4.66-4.15,4.66-2.26,0-4-1.06-4-4V57.42c0-1.47,0-3,0-4.49H138c0,1.47,0,3,0,4.49v1.15C138,60.78,138.61,61.62,140,61.62Zm2.29-7.69-1.59-.11v-.89h3.61v.89l-1.52.11Z"/><path class="cls-9" d="M144.84,53.82v-.89h2.57v1.12h-.28Zm2.84,7.87,2.29.23v.9h-5.13v-.9l2.29-.23Zm-1.77-4.06c0-1.56,0-3.14,0-4.7h3c0,1.53,0,3.11,0,4.7v.47c0,1.58,0,3.15,0,4.72h-3c0-1.54,0-3.11,0-4.71Zm1.53-.26h1.74a1.75,1.75,0,1,0,0-3.5h-1.8v-.94h2.65c2.41,0,3.72.92,3.72,2.45,0,1.11-.81,2.31-3.76,2.45v-.17c2.89.06,3.47,1,3.68,2.68l.27,2.28-1.54-1,2.55.27v.9a6.94,6.94,0,0,1-1.89.24c-1.42,0-2.32-.43-2.45-1.79l-.15-1.49c-.1-.94-.4-1.5-1.17-1.5h-1.88Z"/><path class="cls-9" d="M158.53,53.82v-.89h5.29v.89l-2.35.23h-.65Zm2.56,7.87v1.13h-2.56v-.9l2.29-.23Zm-1.55-8.76h3.1c0,1.53,0,3.11,0,4.7v.7c0,1.35,0,2.92,0,4.49h-3.1c.05-1.54.05-3.11.05-4.27v-.92C159.59,56.07,159.59,54.49,159.54,52.93Zm7.12,6.87-.16,3h-5.41v-.91H166l-1.27.91.59-3Z"/><path class="cls-9" d="M167.23,53.82v-.89h5.15v.89l-2.35.23h-.51Zm2.8,7.87,2.35.23v.9h-5.15v-.9l2.29-.23Zm-1.73-4.06c0-1.56,0-3.14-.05-4.7h3.09c0,1.53,0,3.11,0,4.7v.47c0,1.58,0,3.15,0,4.72h-3.09c.05-1.54.05-3.11.05-4.71Z"/><path class="cls-9" d="M173.23,53.82v-.89h2.56v1.12h-.27Zm3.14,7.87,2.29.23v.9h-5.43v-.9l2.29-.23Zm-2.08-4.06c0-1.56,0-3.14,0-4.7h3.1c-.05,1.53-.05,3.11-.05,4.7v.47c0,1.58,0,3.15.05,4.72h-3.1c0-1.54,0-3.11,0-4.71Zm5.14-4.7,1.26.89h-4.9v-.89h5.4l.11,2.58h-1.43Zm-.32,5.24h-3.32v-1h3.32Zm-.45-.66.22-1.4h1V59.4h-1l-.22-1.47Z"/><path class="cls-9" d="M182,53.82v-.89h2.56v1.12h-.27Zm2.56,7.87v1.13H182v-.9l2.29-.23ZM183,57.63c0-1.56,0-3.14,0-4.7h3.1C186,54.46,186,56,186,57.63v.47c0,1.58,0,3.15.05,4.72H183c0-1.54,0-3.11,0-4.71Zm5-4.7,1.25.89h-4.76v-.89h5.27l.1,2.58h-1.42Zm-.2,5.24h-3.31v-1h3.31Zm2.36,2.07-.1,2.58h-5.57v-.88h5.07l-1.26.88.44-2.58Zm-2.82-2.73.23-1.4h1v3.14h-1l-.23-1.47Z"/><path class="cls-4" d="M206.65,49.76h0a5.61,5.61,0,0,0-4.69,2.57,5.62,5.62,0,0,0-4.69-2.57h0a5.58,5.58,0,0,0-5.53,5.58A12,12,0,0,0,194,61.89a41.44,41.44,0,0,0,7.91,7.62,41.53,41.53,0,0,0,7.9-7.62,12,12,0,0,0,2.36-6.55A5.58,5.58,0,0,0,206.65,49.76ZM206,62.2a1.09,1.09,0,0,1-1-.71h-1.17a.37.37,0,0,1-.35-.25L203,60.16l-1.14,4a.37.37,0,0,1-.35.26h0a.36.36,0,0,1-.35-.3L200,57l-.86,4.18a.35.35,0,0,1-.35.27h-1.65a.37.37,0,0,1-.39-.35.38.38,0,0,1,.36-.38h1.39l1.21-5.62a.38.38,0,0,1,.45-.27.41.41,0,0,1,.28.3l1.19,7.2,1-3.56a.38.38,0,0,1,.35-.26h0a.36.36,0,0,1,.34.25l.65,2h.9a1.1,1.1,0,1,1,1,1.45Z"/></g></g></svg>